<?xml version="1.0" standalone="no"?>
<!DOCTYPE svg PUBLIC "-//W3C//DTD SVG 1.0//EN" "http://www.w3.org/TR/2001/REC-SVG-20010904/DTD/svg10.dtd">
<svg xmlns="http://www.w3.org/2000/svg" xmlns:xlink="http://www.w3.org/1999/xlink" id="body_1" width="600" height="450">

<g transform="matrix(0.3 0 0 0.3 0 0)">
    <path d="M0 0L2000 0L2000 1500L0 1500z" stroke="none" fill="#E8772E" fill-rule="nonzero" />
	<g transform="matrix(0.75 0 0 0.75 249.78668 -0.21332335)">
		<g transform="matrix(5.9880238 0 0 5.9880238 0 0)">
			<g transform="matrix(1 0 0 1 0.0475 0.0475)">
				<g transform="matrix(1 0 0 1 0 0)">
					<g>
						<g transform="matrix(1 0 0 1 0 0)">
						</g>
					</g>
					<g>
						<g transform="matrix(1 0 0 1 0 0)">
							<g>
                                <path d="M0 166.952C 0 74.746994 74.747 0 166.952 0C 259.15698 0 333.904 74.747 333.905 166.952C 333.905 259.15698 259.158 333.904 166.952 333.905C 74.746994 333.905 0 259.158 0 166.952zM166.952 332.135C 258.18 332.135 332.135 258.18 332.135 166.95201C 332.135 75.724014 258.18 1.7690125 166.95201 1.7690125C 75.724014 1.7690125 1.7690125 75.724014 1.7690125 166.95201C 1.7690125 258.18 75.724014 332.135 166.95201 332.135z" stroke="#FFFFFF" stroke-width="1" fill="#ECAB55" fill-rule="nonzero" stroke-opacity="0" />
                                <path d="M6.6780853 166.95227C 6.6780853 78.43528 78.43528 6.6780853 166.95227 6.6780853C 255.46927 6.6780853 327.22644 78.43528 327.22644 166.95227C 327.22644 255.46927 255.46927 327.22644 166.95227 327.22644C 78.43528 327.22644 6.6780853 255.46927 6.6780853 166.95227" stroke="none" fill="#ECAB55" fill-rule="nonzero" />
							</g>
							<g transform="matrix(1 0 0 1 84.34794 71.17305)">
								<g transform="matrix(1 0 0 1 0 0)">
									<g>
										<g transform="matrix(0.77505106 0 0 0.77505106 0 0)">
											<g transform="matrix(1 0 0 1 0 161.00851)">
												<g transform="matrix(1 0 0 1 0 0)">
													<g>
														<g transform="matrix(1 0 0 1 0 0)">
															<g>
																<g transform="matrix(1 0 0 1 0 0)">
																	<g transform="matrix(1 0 0 1 0 0)">
																		<g transform="matrix(1.5810177 0 0 1.5810177 4.7430534 55.33562)">
                                                                            <path transform="matrix(1 0 0 1 0 0)"  d="M30.005 2.89L23.967 4.6540003L13.2369995 -6.3269997C 11.82 -5.851 10.549 -5.4479995 9.421999 -5.1189995L9.421999 -5.1189995L8.116999 -4.7369995L11.891998 8.182L6.7859983 9.675L-3.267002 -24.727001L4.555998 -27.013C 8.516998 -28.17 12.016998 -28.304 15.054997 -27.414C 18.086998 -26.522 20.140997 -24.233 21.218998 -20.546999C 21.891998 -18.243 21.934998 -16.098999 21.347998 -14.114999C 20.760998 -12.130999 19.537998 -10.373999 17.678997 -8.843999L17.678997 -8.843999L30.005 2.89zM6.875 -8.99L10.196 -9.96C 13.255 -10.854 15.159 -12.133 15.909 -13.796C 16.661001 -15.452999 16.769001 -17.199999 16.232 -19.036999C 15.037001 -23.126 11.707001 -24.371998 6.2420006 -22.776L6.2420006 -22.776L3.1130006 -21.860998zM34.972 2.324L28.684 -32.96L34.059 -33.918L40.347 1.3660011zM63.678 0.953C 60.133003 1.061 56.940002 0.34500003 54.098 -1.1959999C 51.256 -2.737 49.003 -4.902 47.336998 -7.693C 45.677998 -10.49 44.794 -13.658 44.685997 -17.196C 44.580997 -20.640999 45.282997 -23.771 46.790997 -26.585C 48.292995 -29.391998 50.435997 -31.618 53.219997 -33.264C 55.997997 -34.909 59.156 -35.786 62.693996 -35.894C 64.613 -35.953 66.351 -35.835003 67.907 -35.542C 69.457 -35.249 70.725 -34.898 71.711 -34.488C 72.703995 -34.078 73.381996 -33.715 73.744995 -33.399L73.744995 -33.399L71.745995 -28.755999C 69.676994 -30.319998 66.68099 -31.043 62.755997 -30.922998C 60.150997 -30.843998 57.908997 -30.204998 56.031 -29.006998C 54.146 -27.815998 52.731 -26.227999 51.783997 -24.245998C 50.836998 -22.269999 50.399998 -20.078999 50.473995 -17.672998C 50.556995 -14.940998 51.174995 -12.518999 52.325996 -10.405998C 53.483997 -8.299998 55.046997 -6.683998 57.015995 -5.5569983C 58.984997 -4.4299984 61.184994 -3.9029982 63.616997 -3.9769983C 65.149994 -4.0239983 66.606995 -4.254998 67.988 -4.6709986C 69.376 -5.0869985 70.544 -5.7159986 71.492 -6.5579987L71.492 -6.5579987L71.281 -13.474998L63.925 -13.2509985L63.772 -18.267998L76.535995 -18.657997L76.964 -4.6239967C 75.841995 -3.1289968 74.117 -1.8489966 71.787994 -0.78499675C 69.465996 0.2800033 66.76199 0.8590033 63.677994 0.9530033zM89.385 2.406C 87.456 2.146 85.586 1.5469999 83.775 0.6099999C 81.963005 -0.3200001 80.697 -1.2610002 79.978004 -2.2120001L79.978004 -2.2120001L83.15301 -6.4560003C 83.74401 -5.7510004 84.712006 -4.971 86.05701 -4.1170006C 87.40201 -3.2630005 88.73501 -2.7470007 90.05601 -2.5690007C 91.767006 -2.3380008 93.21601 -2.5530007 94.40101 -3.2150006C 95.587006 -3.8760006 96.27501 -4.917001 96.46701 -6.337001C 96.61501 -7.434001 96.45501 -8.421001 95.988014 -9.297001C 95.515015 -10.181001 94.89501 -10.948001 94.12801 -11.596001C 93.360016 -12.238001 92.25501 -13.049001 90.81401 -14.031C 89.099014 -15.184 87.93501 -16.03 87.322014 -16.57C 84.47901 -19.086 83.308014 -22.196999 83.807014 -25.903C 84.21902 -28.962 85.54901 -31.167 87.79701 -32.52C 90.044014 -33.872 92.71401 -34.339 95.806015 -33.922C 99.12901 -33.474 101.82301 -32.146 103.88602 -29.937L103.88602 -29.937L100.72601 -25.883C 100.20501 -26.605999 99.417015 -27.277 98.36401 -27.896C 97.31702 -28.515 96.166016 -28.909 94.91101 -29.078C 93.29901 -29.294998 91.98501 -29.102 90.96801 -28.5C 89.95201 -27.897 89.34801 -26.889 89.15801 -25.475C 89.02401 -24.477001 89.194016 -23.543001 89.668015 -22.671001C 90.14301 -21.806002 90.78501 -21.024002 91.59202 -20.323002C 92.39902 -19.622002 93.50302 -18.754002 94.903015 -17.718002C 96.24802 -16.716002 97.27502 -15.928002 97.985016 -15.355002C 98.695015 -14.782002 99.34302 -14.129003 99.931015 -13.397002C 100.749016 -12.432002 101.37102 -11.329002 101.79601 -10.088002C 102.222015 -8.853003 102.34101 -7.542002 102.154015 -6.155002C 101.86401 -4.0010023 101.124016 -2.231002 99.93401 -0.84400225C 98.752014 0.5369978 97.24702 1.4979978 95.419014 2.0379977C 93.59001 2.5789976 91.57902 2.7009978 89.38502 2.4059978zM112.817 7.382C 110.941 6.864 109.169 6.018 107.501 4.844C 105.831 3.6769998 104.705 2.574 104.12 1.5339999L104.12 1.5339999L107.840004 -2.2410002C 108.33 -1.4620001 109.184006 -0.55900013 110.401 0.46899986C 111.618004 1.4969999 112.869 2.1879997 114.154 2.5429997C 115.818 3.0029998 117.282 2.9859998 118.547 2.4909997C 119.811 1.9959997 120.633995 1.0579997 121.015 -0.3230002C 121.31 -1.3900002 121.284996 -2.3890002 120.941 -3.321C 120.592 -4.261 120.082 -5.104 119.409004 -5.8500004C 118.735 -6.59 117.75001 -7.543 116.455 -8.71C 114.912 -10.084 113.873 -11.08 113.338005 -11.699C 110.86101 -14.576 110.121 -17.817001 111.117004 -21.421001C 111.939 -24.396002 113.55501 -26.402 115.965004 -27.437C 118.37501 -28.473 121.08301 -28.575 124.090004 -27.744C 127.32201 -26.851 129.811 -25.171 131.557 -22.703999L131.557 -22.703999L127.878006 -19.113998C 127.45901 -19.901 126.770004 -20.671999 125.810005 -21.427998C 124.857 -22.182997 123.769005 -22.727997 122.548004 -23.065998C 120.98 -23.498999 119.65201 -23.485998 118.563 -23.025997C 117.47401 -22.565998 116.740005 -21.647997 116.361 -20.272997C 116.093 -19.302998 116.135 -18.353996 116.487 -17.426996C 116.840996 -16.505997 117.371 -15.643996 118.076 -14.839996C 118.781 -14.036997 119.756996 -13.026997 121.005 -11.810996C 122.201996 -10.635996 123.113 -9.716996 123.739 -9.052996C 124.365 -8.388996 124.919 -7.654996 125.402 -6.8499956C 126.083 -5.7839956 126.549 -4.6069956 126.803 -3.3199956C 127.058 -2.0389957 126.999 -0.7239957 126.625 0.62600446C 126.046 2.7210045 125.074 4.375005 123.708 5.588004C 122.35 6.797004 120.729004 7.545004 118.845 7.8340044C 116.96 8.1220045 114.951004 7.9720044 112.817 7.3820043z" stroke="none" fill="#E8772E" fill-rule="nonzero" />
																		</g>
																	</g>
																</g>
															</g>
															<g transform="matrix(1 0 0 1 37.302727 78.0436)">
																<g transform="matrix(1 0 0 1 0 0)">
																	<g transform="matrix(1 0 0 1 0 0)">
																		<g transform="matrix(0.21610074 0 0 0.21610074 -0.20529175 7.7796264)">
                                                                            <path transform="matrix(1 0 0 1 0 0)"  d="M18.95 -19.1L18.2 -18.95C 17.833334 -18.85 17.65 -18.743332 17.65 -18.63C 17.65 -18.510002 18.05 -18.300001 18.85 -18C 19.650002 -17.7 20.41 -17.233334 21.13 -16.6C 21.843334 -15.966667 22.350002 -15.200001 22.65 -14.3C 23.116669 -12.933334 23.350002 -11.466667 23.35 -9.9C 23.350002 -8.333334 23.466667 -7.043334 23.7 -6.03C 23.933334 -5.01 24.216667 -4.2333336 24.55 -3.7C 25.216667 -2.5666666 25.833332 -1.8666668 26.4 -1.6L26.4 -1.6L26.75 -1.4C 26.95 -1.2666668 27.05 -1.1000001 27.05 -0.9C 27.05 -0.40000004 26.233334 0.043333337 24.6 0.43C 22.966667 0.81000006 21.7 1 20.8 1C 19.033333 1 17.91 0.29000002 17.43 -1.13C 16.943335 -2.5433335 16.7 -4.9666667 16.7 -8.4L16.7 -8.4L16.7 -11.15C 16.7 -14.050001 15.833334 -15.900002 14.1 -16.7C 13.433334 -17 12.633333 -17.15 11.7 -17.15L11.7 -17.15L11.65 -17.15C 11.35 -17.15 11.2 -17.443333 11.2 -18.03C 11.2 -18.61 11.376667 -19.2 11.73 -19.8C 12.076667 -20.400002 12.383333 -20.7 12.65 -20.7C 13.75 -20.7 14.700001 -20.910002 15.5 -21.33C 16.300001 -21.743334 16.883335 -22.25 17.25 -22.85C 18.016666 -24.116667 18.433334 -25.2 18.5 -26.1L18.5 -26.1L18.5 -26.75C 18.5 -27.983334 18.300001 -29.026669 17.9 -29.88C 17.5 -30.726665 17 -31.316666 16.4 -31.65C 15.4 -32.183334 14.383333 -32.450005 13.35 -32.45C 12.316668 -32.450005 11.466667 -32.36667 10.8 -32.2C 9.866667 -31.933334 9.4 -31.650002 9.4 -31.35C 9.1 -26.983334 8.95 -22.776667 8.95 -18.73C 8.95 -14.676666 9.01 -11.576667 9.13 -9.43C 9.243334 -7.2766666 9.356667 -5.543333 9.47 -4.23C 9.59 -2.91 9.65 -2.1333332 9.65 -1.9C 9.65 -1.4666667 9.533334 -1.1666667 9.3 -1C 7.9333334 0.26666668 5.7833333 0.90000004 2.85 0.9C 2.35 0.90000004 2.1 0.73333335 2.1 0.4C 2.1 0.3 2.15 0.06666666 2.25 -0.3C 2.5833335 -1.0666667 2.8266668 -3.5 2.98 -7.6C 3.1266668 -11.700001 3.2000003 -15.440001 3.2 -18.82C 3.2000003 -22.206667 3.1333334 -24.95 3 -27.05C 2.8000002 -30.216667 2.4666667 -32.11667 2 -32.75C 1.6333334 -33.216667 1.45 -33.543335 1.45 -33.73C 1.45 -33.910004 1.6333334 -34.100002 2 -34.3C 4.133333 -35.3 8 -35.8 13.6 -35.8C 18.100002 -35.8 21.466667 -34.533333 23.7 -32C 24.900002 -30.600002 25.5 -28.850002 25.5 -26.75C 25.5 -25.483334 25.25 -24.350002 24.75 -23.35C 24.25 -22.350002 23.633333 -21.583334 22.9 -21.05C 21.5 -19.983334 20.183334 -19.333334 18.95 -19.1zM32.65 -12.7L32.7 -11.45C 32.7 -11.25 32.833336 -11.15 33.1 -11.15C 34.166668 -11.25 35.100002 -11.526667 35.9 -11.98C 36.7 -12.426666 37.300003 -12.933333 37.7 -13.5C 38.5 -14.733334 38.933334 -15.800001 39 -16.7L39 -16.7L39.05 -17.3C 39.05 -19.1 38.333336 -20 36.9 -20C 35.833336 -20 34.966667 -19.533335 34.3 -18.6C 33.2 -17.133333 32.65 -15.166667 32.65 -12.7zM43.55 -6.05C 43.55 -4.783334 43.29 -3.676667 42.77 -2.73C 42.256668 -1.7766666 41.673332 -1.0766667 41.02 -0.63C 40.373337 -0.17666668 39.61667 0.18333334 38.75 0.45C 37.65 0.7833333 36.6 0.95 35.6 0.95C 32.800003 0.95 30.733334 -0.100000024 29.4 -2.2C 28.066666 -4.3 27.4 -6.9766665 27.4 -10.23C 27.4 -13.476667 28.223333 -16.366669 29.87 -18.9C 31.523333 -21.433334 34 -22.7 37.3 -22.7C 40.3 -22.7 42.333336 -21.650002 43.4 -19.55C 43.833336 -18.75 44.05 -17.993334 44.05 -17.28C 44.05 -16.560001 44.016666 -15.993335 43.95 -15.58C 43.883335 -15.160001 43.65 -14.533334 43.25 -13.7C 42.850002 -12.866667 42.31667 -12.116667 41.65 -11.45C 40.983337 -10.783333 39.933334 -10.15 38.5 -9.55C 37.066666 -8.95 35.383335 -8.55 33.45 -8.35C 33.183334 -8.35 33.05 -8.233334 33.05 -8C 33.05 -7.700001 33.156666 -7.26 33.37 -6.68C 33.59 -6.0933332 33.833336 -5.6000004 34.1 -5.2C 34.833336 -4.2666664 35.916668 -3.8 37.35 -3.8C 38.783333 -3.8 40 -4.2666664 41 -5.2C 41.533333 -5.7 41.966667 -6.3166666 42.3 -7.05C 42.433334 -7.3166666 42.606667 -7.45 42.82 -7.45C 43.04 -7.45 43.216667 -7.266667 43.35 -6.9C 43.483334 -6.533334 43.55 -6.2500005 43.55 -6.05zM62.3 -15L62.2 -8.6C 62.2 -4.166667 62.68 -1.5000001 63.64 -0.6C 63.773335 -0.4666667 63.840004 -0.3166667 63.84 -0.15C 63.840004 0.35000002 62.76667 0.6 60.62 0.6C 58.466667 0.6 57.326668 -0.0333333 57.2 -1.3C 57.160004 -1.6000001 57.14 -2.2166667 57.14 -3.15L57.14 -3.15L57.34 -11.15C 57.340004 -11.383333 57.210003 -11.5 56.95 -11.5C 55.350002 -11.5 53.850002 -11.05 52.45 -10.15C 51.043335 -9.25 50.340004 -8.1 50.34 -6.7C 50.340004 -5.9666667 50.543335 -5.35 50.95 -4.85C 51.350002 -4.35 51.840004 -4.1 52.42 -4.1C 53.006668 -4.1 53.489998 -4.2166667 53.87 -4.45C 54.256668 -4.6833334 54.483337 -4.816667 54.55 -4.85C 55.11 -4.7833333 55.39 -4.1933336 55.39 -3.08C 55.39 -1.96 54.873333 -1.06 53.84 -0.38C 52.813335 0.30666667 51.730003 0.65 50.59 0.65C 49.45667 0.65 48.483334 0.45000002 47.67 0.05C 46.856667 -0.35 46.263336 -0.8 45.89 -1.3C 45.523335 -1.8 45.223335 -2.3666668 44.99 -3C 44.756668 -3.766667 44.64 -4.4333334 44.64 -5C 44.64 -7.333334 45.373333 -9.200001 46.84 -10.6C 48.313335 -12.000001 50.19667 -13.000001 52.49 -13.6C 55.53 -14.200001 57.113335 -14.75 57.24 -15.25C 57.340004 -15.616667 57.390003 -16.233334 57.39 -17.1C 57.390003 -18.866667 56.493336 -19.75 54.7 -19.75C 53.933334 -19.75 53.246666 -19.51 52.64 -19.03C 52.04 -18.543333 51.740005 -17.933334 51.74 -17.2L51.74 -17.2L52.05 -16C 51.983337 -15.433334 51.380005 -15.1 50.24 -15L50.24 -15L49.7 -14.95C 48.700005 -14.950001 47.90667 -15.200001 47.32 -15.7C 46.74 -16.2 46.45 -16.866669 46.45 -17.7C 46.45 -18.233334 46.623337 -18.826668 46.97 -19.48C 47.31667 -20.126667 47.760002 -20.650002 48.3 -21.05C 48.826668 -21.45 49.65 -21.81 50.77 -22.13C 51.89 -22.443335 52.963333 -22.600002 53.99 -22.6C 55.03 -22.600002 55.83 -22.566668 56.39 -22.5C 56.956673 -22.433334 57.733337 -22.276667 58.72 -22.03C 59.70667 -21.776667 60.523335 -21.3 61.17 -20.6C 61.816666 -19.9 62.166668 -19.16 62.22 -18.38C 62.273335 -17.593334 62.3 -16.466667 62.3 -15zM71.59 -28.6L71.29 -10.25C 71.29 -4.516667 71.473335 -1.0833334 71.84 0.05C 71.94 0.25 71.99 0.45 71.99 0.65C 71.99 1.0500001 71.50667 1.25 70.54 1.25C 69.57333 1.25 68.5 1.01 67.32 0.53C 66.13334 0.04333332 65.54001 -0.5833334 65.54 -1.35C 66.206665 -6.016667 66.54 -12.25 66.54 -20.05L66.54 -20.05L66.34 -27.7C 66.27333 -28.633335 66.08333 -29.433334 65.77 -30.1C 65.45 -30.766666 65.14 -31.2 64.84 -31.4L64.84 -31.4L64.44 -31.65C 64.206665 -31.783333 64.09 -31.933334 64.09 -32.1C 64.09 -32.566666 64.816666 -33.143333 66.27 -33.83C 67.716675 -34.510002 69.12334 -34.85 70.49 -34.85C 71.02333 -34.85 71.32333 -34.666668 71.39 -34.3C 71.52333 -33.433334 71.59 -31.533333 71.59 -28.6zM80.14 -26.75L78.94 -26.8C 78.04 -26.8 77.456665 -26.583334 77.19 -26.15C 77.12334 -26.050001 77.04 -26 76.94 -26C 76.50667 -26 76.29 -26.743334 76.29 -28.23C 76.29 -29.710001 76.51667 -30.650002 76.97 -31.05C 77.41667 -31.45 78.200005 -31.650002 79.32 -31.65C 80.433334 -31.650002 81.19 -31.460001 81.59 -31.08C 81.990005 -30.693335 82.19 -30.050001 82.19 -29.15C 82.19 -28.25 82.04 -27.626667 81.74 -27.28C 81.44 -26.926668 80.90667 -26.75 80.14 -26.75zM76.14 -1.5L76.69 -13.15C 76.69 -15.916666 76.37334 -17.8 75.74 -18.8C 75.54 -19.133333 75.30667 -19.383333 75.04 -19.55C 74.840004 -19.616667 74.740005 -19.75 74.74 -19.95C 74.740005 -20.550001 75.590004 -21.133335 77.29 -21.7C 78.99 -22.266666 80.23333 -22.55 81.02 -22.55C 81.8 -22.55 82.206665 -22.35 82.24 -21.95C 82.240005 -21.283335 82.15 -19.393333 81.97 -16.28C 81.78334 -13.160001 81.69 -9.883333 81.69 -6.45C 81.69 -3.016667 81.89 -0.8833333 82.29 -0.05C 82.39 0.116666675 82.44 0.28333336 82.44 0.45C 82.44 0.8833333 81.80667 1.1 80.54 1.1C 79.27333 1.1 77.973335 0.7666667 76.64 0.1C 76.30667 -0.06666668 76.14 -0.6 76.14 -1.5zM100.69 -6.85C 100.69 -5.4166665 100.41334 -4.1666665 99.86 -3.1C 99.31334 -2.0333333 98.69 -1.25 97.99 -0.75C 97.29001 -0.25 96.45667 0.15 95.49 0.45C 94.223335 0.85 93.07333 1.05 92.04 1.05C 89.87334 1.05 88.07333 0.62333333 86.64 -0.23C 85.206665 -1.0766667 84.490005 -2.4333334 84.49 -4.3C 84.490005 -5.4 84.79 -6.3 85.39 -7C 86.32333 -8.033334 87.44 -8.55 88.74 -8.55C 89.14 -8.55 89.34 -8.366667 89.34 -8C 89.34 -7.966667 89.263336 -7.71 89.11 -7.23C 88.96333 -6.743334 88.89 -6.1333337 88.89 -5.4C 88.89 -4.666667 89.18001 -4.016667 89.76 -3.45C 90.346664 -2.8833334 91.05667 -2.6 91.89 -2.6C 92.723335 -2.6 93.39 -2.7433333 93.89 -3.03C 94.39 -3.3100002 94.740005 -3.666667 94.94 -4.1C 95.240005 -4.7000003 95.39 -5.266667 95.39 -5.8C 95.39 -6.766667 94.90667 -7.6000004 93.94 -8.3C 92.973335 -9 91.90666 -9.55 90.74 -9.95C 89.57333 -10.35 88.50667 -11.016667 87.54 -11.95C 86.57333 -12.883334 86.09 -14.050001 86.09 -15.45C 86.09 -17.85 86.846664 -19.65 88.36 -20.85C 89.880005 -22.050001 91.94 -22.650002 94.54 -22.65C 95.67334 -22.650002 96.86334 -22.493334 98.11 -22.18C 99.36334 -21.86 99.990005 -21.326668 99.99 -20.58C 99.990005 -19.826668 99.86334 -19.133335 99.61 -18.5C 99.36334 -17.866667 99.05667 -17.55 98.69 -17.55C 98.490005 -17.55 98.356674 -17.626667 98.29 -17.78C 98.22334 -17.926666 98.106674 -18.1 97.94 -18.3C 97.77334 -18.5 97.37334 -18.756668 96.74 -19.07C 96.10667 -19.39 95.56334 -19.55 95.11 -19.55C 94.66334 -19.55 94.363335 -19.543333 94.21 -19.53C 94.06333 -19.51 93.80667 -19.46 93.44 -19.38C 93.07333 -19.293335 92.740005 -19.166668 92.44 -19C 91.67334 -18.566668 91.29 -17.933334 91.29 -17.1C 91.29 -16.566668 91.40667 -16.176666 91.64 -15.93C 91.87334 -15.676667 92.05667 -15.483334 92.19 -15.35C 92.32333 -15.216667 92.55667 -15.06 92.89 -14.88C 93.223335 -14.693334 93.456665 -14.566668 93.59 -14.5C 93.723335 -14.433334 94.02333 -14.293334 94.49 -14.08C 94.956665 -13.860001 95.25667 -13.716667 95.39 -13.65C 98.92334 -11.983334 100.69 -9.716667 100.69 -6.85zM101.94 -19.5L102.09 -21.5C 102.12334 -21.800001 102.356674 -21.95 102.79 -21.95L102.79 -21.95L104.54 -21.95L104.34 -25.95L104.34 -26.15C 104.34 -26.916668 104.92333 -27.650002 106.09 -28.35C 107.25667 -29.050001 108.32333 -29.400002 109.29 -29.4C 109.590004 -29.400002 109.740005 -29.266666 109.74 -29L109.74 -29L109.74 -28.95C 109.606674 -28.050003 109.47334 -25.733335 109.34 -22C 110.80667 -22 111.740005 -22.033333 112.14 -22.1C 112.54001 -22.166668 112.75667 -22.2 112.79 -22.2C 113.02333 -22.2 113.14 -22.000002 113.14 -21.6C 113.14 -21.2 112.956665 -20.693333 112.59 -20.08C 112.223335 -19.46 111.82333 -19.133333 111.39 -19.1L111.39 -19.1L109.29 -19.1C 109.25667 -17.966667 109.240005 -16.060001 109.24 -13.38C 109.240005 -10.693334 109.263336 -8.483334 109.31 -6.75C 109.363335 -5.016667 109.42333 -3.7100003 109.49 -2.83C 109.55666 -1.9433334 109.63 -1.2333333 109.71 -0.7C 109.79667 -0.16666666 109.86334 0.21666667 109.91 0.45C 109.96333 0.6833334 109.990005 0.8333334 109.99 0.9C 109.990005 1.2333333 109.77333 1.4166667 109.34 1.45C 108.04001 1.45 106.74667 1.2666667 105.46 0.9C 104.18001 0.53333336 103.54001 -0.10000001 103.54 -1C 104.240005 -6.6 104.590004 -12.616667 104.59 -19.05C 103.69 -19.05 103.00667 -19.016666 102.54 -18.95L102.54 -18.95L102.49 -18.95C 102.19 -18.95 102.006676 -19.133335 101.94 -19.5zM119.03 -26.75L117.83 -26.8C 116.93001 -26.8 116.34667 -26.583334 116.08 -26.15C 116.01334 -26.050001 115.93001 -26 115.83 -26C 115.39667 -26 115.18 -26.743334 115.18 -28.23C 115.18 -29.710001 115.40667 -30.650002 115.86 -31.05C 116.30667 -31.45 117.090004 -31.650002 118.21 -31.65C 119.32333 -31.650002 120.08 -31.460001 120.48 -31.08C 120.880005 -30.693335 121.08 -30.050001 121.08 -29.15C 121.08 -28.25 120.93 -27.626667 120.63 -27.28C 120.33 -26.926668 119.79667 -26.75 119.03 -26.75zM115.03 -1.5L115.58 -13.15C 115.58 -15.916666 115.263336 -17.8 114.63 -18.8C 114.43 -19.133333 114.19667 -19.383333 113.93 -19.55C 113.73 -19.616667 113.630005 -19.75 113.63 -19.95C 113.630005 -20.550001 114.48 -21.133335 116.18 -21.7C 117.880005 -22.266666 119.12334 -22.55 119.91 -22.55C 120.69 -22.55 121.096664 -22.35 121.13 -21.95C 121.130005 -21.283335 121.04 -19.393333 120.86 -16.28C 120.67334 -13.160001 120.58001 -9.883333 120.58 -6.45C 120.58001 -3.016667 120.78001 -0.8833333 121.18 -0.05C 121.28001 0.116666675 121.33001 0.28333336 121.33 0.45C 121.33001 0.8833333 120.69667 1.1 119.43 1.1C 118.16333 1.1 116.863335 0.7666667 115.53 0.1C 115.19667 -0.06666668 115.03 -0.6 115.03 -1.5zM140.73 -5.75C 140.73 -3.8500001 139.97333 -2.2766666 138.46 -1.03C 136.94 0.22333339 135.13 0.8500001 133.03 0.85C 129.96333 0.8500001 127.71333 -0.07666659 126.28 -1.93C 124.846664 -3.7766666 124.130005 -6.2833333 124.13 -9.45C 124.130005 -12.816668 124.880005 -15.8 126.38 -18.4C 127.11334 -19.733334 128.16333 -20.783333 129.53 -21.55C 130.89667 -22.316668 132.49667 -22.7 134.33 -22.7C 137.09666 -22.7 139.04666 -21.766666 140.18 -19.9C 140.64667 -19.133333 140.88 -18.233334 140.88 -17.2C 140.88 -15.6 140.21335 -14.400001 138.88 -13.6C 138.34668 -13.3 137.85667 -13.15 137.41 -13.15C 136.95667 -13.15 136.59 -13.176666 136.31 -13.23C 136.02335 -13.276667 135.64667 -13.5 135.18 -13.9C 134.71333 -14.3 134.48001 -14.85 134.48 -15.55C 134.51334 -15.916667 134.79666 -16.216667 135.33 -16.45C 135.83 -16.75 136.08 -17.283333 136.08 -18.05C 136.08 -19.35 135.28 -20 133.68 -20C 133.28 -20 132.80667 -19.826668 132.26 -19.48C 131.70667 -19.126667 131.24667 -18.676666 130.88 -18.13C 130.51334 -17.576666 130.17334 -16.71 129.86 -15.53C 129.54001 -14.343334 129.38 -13.210001 129.38 -12.13C 129.38 -11.043333 129.42334 -10.226667 129.51 -9.68C 129.59 -9.126667 129.77335 -8.376667 130.06 -7.43C 130.34 -6.4766665 130.87334 -5.7 131.66 -5.1C 132.44 -4.5 133.41333 -4.2 134.58 -4.2C 135.98 -4.2 137.21333 -4.7833333 138.28 -5.95C 138.71333 -6.416667 139.06332 -6.9833336 139.33 -7.65C 139.46335 -7.916667 139.63 -8.05 139.83 -8.05C 140.13 -8.05 140.35667 -7.7766666 140.51 -7.23C 140.65666 -6.676667 140.73 -6.1833334 140.73 -5.75zM160.38 -22.15C 160.38 -11.816667 160.61334 -5.05 161.08 -1.85C 161.08002 -1.05 160.31334 -0.39000002 158.78 0.13C 157.24667 0.6433334 155.98 0.90000004 154.98 0.9C 153.98 0.90000004 153.48 0.75 153.48 0.45C 153.48 0.25 153.53 0 153.63 -0.3C 154.26334 -1.7000002 154.58 -7.333334 154.58 -17.2C 154.58 -26.533335 154.18001 -31.716667 153.38 -32.75L153.38 -32.75L153.18 -33.05C 152.98001 -33.216667 152.88 -33.426666 152.88 -33.68C 152.88 -33.926666 153.06334 -34.133335 153.43 -34.3C 153.93 -34.600002 154.82 -34.9 156.1 -35.2C 157.38667 -35.5 158.54666 -35.65 159.58 -35.65C 160.61334 -35.65 161.13 -35.416668 161.13 -34.95L161.13 -34.95L161.13 -34.8C 160.73001 -31.333334 160.48001 -27.116667 160.38 -22.15zM163.87 -19.5L164.02 -21.5C 164.05334 -21.800001 164.28668 -21.95 164.72 -21.95L164.72 -21.95L166.47 -21.95L166.27 -25.95L166.27 -26.15C 166.27 -26.916668 166.85333 -27.650002 168.02 -28.35C 169.18668 -29.050001 170.25334 -29.400002 171.22 -29.4C 171.52 -29.400002 171.67001 -29.266666 171.67 -29L171.67 -29L171.67 -28.95C 171.53668 -28.050003 171.40335 -25.733335 171.27 -22C 172.73666 -22 173.67001 -22.033333 174.07 -22.1C 174.47 -22.166668 174.68668 -22.2 174.72 -22.2C 174.95334 -22.2 175.07 -22.000002 175.07 -21.6C 175.07 -21.2 174.88667 -20.693333 174.52 -20.08C 174.15334 -19.46 173.75334 -19.133333 173.32 -19.1L173.32 -19.1L171.22 -19.1C 171.18668 -17.966667 171.17 -16.060001 171.17 -13.38C 171.17 -10.693334 171.19667 -8.483334 171.25 -6.75C 171.29668 -5.016667 171.35333 -3.7100003 171.42 -2.83C 171.48666 -1.9433334 171.56334 -1.2333333 171.65 -0.7C 171.73001 -0.16666666 171.79668 0.21666667 171.85 0.45C 171.89667 0.6833334 171.92 0.8333334 171.92 0.9C 171.92 1.2333333 171.70334 1.4166667 171.27 1.45C 169.97 1.45 168.68001 1.2666667 167.4 0.9C 166.11334 0.53333336 165.47 -0.10000001 165.47 -1C 166.17001 -6.6 166.52 -12.616667 166.52 -19.05C 165.62 -19.05 164.93668 -19.016666 164.47 -18.95L164.47 -18.95L164.42 -18.95C 164.12001 -18.95 163.93668 -19.133335 163.87 -19.5zM192.52 -15L192.42 -8.6C 192.42 -4.166667 192.90334 -1.5000001 193.87 -0.6C 194.00334 -0.4666667 194.07 -0.3166667 194.07 -0.15C 194.07 0.35000002 192.99667 0.6 190.85 0.6C 188.69667 0.6 187.55334 -0.0333333 187.42 -1.3C 187.38666 -1.6000001 187.37 -2.2166667 187.37 -3.15L187.37 -3.15L187.57 -11.15C 187.57 -11.383333 187.43668 -11.5 187.17 -11.5C 185.57 -11.5 184.07 -11.05 182.67 -10.15C 181.27 -9.25 180.57 -8.1 180.57 -6.7C 180.57 -5.9666667 180.77 -5.35 181.17 -4.85C 181.57 -4.35 182.06334 -4.1 182.65 -4.1C 183.23001 -4.1 183.71335 -4.2166667 184.1 -4.45C 184.48001 -4.6833334 184.70334 -4.816667 184.77 -4.85C 185.33667 -4.7833333 185.62 -4.1933336 185.62 -3.08C 185.62 -1.96 185.10333 -1.06 184.07 -0.38C 183.03668 0.30666667 181.95334 0.65 180.82 0.65C 179.68668 0.65 178.71333 0.45000002 177.9 0.05C 177.08 -0.35 176.48666 -0.8 176.12 -1.3C 175.75334 -1.8 175.45334 -2.3666668 175.22 -3C 174.98666 -3.766667 174.87 -4.4333334 174.87 -5C 174.87 -7.333334 175.60333 -9.200001 177.07 -10.6C 178.53668 -12.000001 180.42001 -13.000001 182.72 -13.6C 185.75334 -14.200001 187.33667 -14.75 187.47 -15.25C 187.57 -15.616667 187.62 -16.233334 187.62 -17.1C 187.62 -18.866667 186.72 -19.75 184.92 -19.75C 184.15334 -19.75 183.47 -19.51 182.87 -19.03C 182.27 -18.543333 181.97 -17.933334 181.97 -17.2L181.97 -17.2L182.27 -16C 182.20334 -15.433334 181.60333 -15.1 180.47 -15L180.47 -15L179.92 -14.95C 178.92001 -14.950001 178.13 -15.200001 177.55 -15.7C 176.96333 -16.2 176.67 -16.866669 176.67 -17.7C 176.67 -18.233334 176.84666 -18.826668 177.2 -19.48C 177.54666 -20.126667 177.98666 -20.650002 178.52 -21.05C 179.05334 -21.45 179.88 -21.81 181 -22.13C 182.11334 -22.443335 183.18668 -22.600002 184.22 -22.6C 185.25334 -22.600002 186.05334 -22.566668 186.62 -22.5C 187.18668 -22.433334 187.96333 -22.276667 188.95 -22.03C 189.93001 -21.776667 190.74667 -21.3 191.4 -20.6C 192.04668 -19.9 192.39667 -19.16 192.45 -18.38C 192.49667 -17.593334 192.52002 -16.466667 192.52 -15zM201.82 -28.6L201.52 -10.25C 201.52002 -4.516667 201.70335 -1.0833334 202.07 0.05C 202.17001 0.25 202.22 0.45 202.22 0.65C 202.22 1.0500001 201.73668 1.25 200.77 1.25C 199.80334 1.25 198.72667 1.01 197.54 0.53C 196.36 0.04333332 195.77 -0.5833334 195.77 -1.35C 196.43668 -6.016667 196.77002 -12.25 196.77 -20.05L196.77 -20.05L196.57 -27.7C 196.50336 -28.633335 196.31001 -29.433334 195.99 -30.1C 195.67668 -30.766666 195.37003 -31.2 195.07 -31.4L195.07 -31.4L194.67 -31.65C 194.43668 -31.783333 194.32 -31.933334 194.32 -32.1C 194.32 -32.566666 195.04335 -33.143333 196.49 -33.83C 197.94334 -34.510002 199.35333 -34.85 200.72 -34.85C 201.25336 -34.85 201.55334 -34.666668 201.62 -34.3C 201.75334 -33.433334 201.82 -31.533333 201.82 -28.6zM210.37 -26.75L209.17 -26.8C 208.27002 -26.8 207.68668 -26.583334 207.42 -26.15C 207.35335 -26.050001 207.27002 -26 207.17 -26C 206.73668 -26 206.52002 -26.743334 206.52 -28.23C 206.52002 -29.710001 206.74335 -30.650002 207.19 -31.05C 207.64334 -31.45 208.42667 -31.650002 209.54 -31.65C 210.66 -31.650002 211.42001 -31.460001 211.82 -31.08C 212.22002 -30.693335 212.42001 -30.050001 212.42 -29.15C 212.42001 -28.25 212.27002 -27.626667 211.97 -27.28C 211.67001 -26.926668 211.13667 -26.75 210.37 -26.75zM206.37 -1.5L206.92 -13.15C 206.92001 -15.916666 206.60333 -17.8 205.97 -18.8C 205.77002 -19.133333 205.53668 -19.383333 205.27 -19.55C 205.07 -19.616667 204.97 -19.75 204.97 -19.95C 204.97 -20.550001 205.82 -21.133335 207.52 -21.7C 209.22002 -22.266666 210.46002 -22.55 211.24 -22.55C 212.02667 -22.55 212.43668 -22.35 212.47 -21.95C 212.47 -21.283335 212.37668 -19.393333 212.19 -16.28C 212.01001 -13.160001 211.92 -9.883333 211.92 -6.45C 211.92 -3.016667 212.12 -0.8833333 212.52 -0.05C 212.62 0.116666675 212.67 0.28333336 212.67 0.45C 212.67 0.8833333 212.03667 1.1 210.77 1.1C 209.50334 1.1 208.20334 0.7666667 206.87 0.1C 206.53667 -0.06666668 206.37 -0.6 206.37 -1.5zM232.41 -15L232.31 -8.6C 232.31 -4.166667 232.79333 -1.5000001 233.76 -0.6C 233.89334 -0.4666667 233.96002 -0.3166667 233.96 -0.15C 233.96002 0.35000002 232.88669 0.6 230.74 0.6C 228.58667 0.6 227.44334 -0.0333333 227.31 -1.3C 227.27667 -1.6000001 227.26001 -2.2166667 227.26 -3.15L227.26 -3.15L227.46 -11.15C 227.46002 -11.383333 227.32669 -11.5 227.06 -11.5C 225.46002 -11.5 223.96002 -11.05 222.56 -10.15C 221.16 -9.25 220.46002 -8.1 220.46 -6.7C 220.46002 -5.9666667 220.66 -5.35 221.06 -4.85C 221.46002 -4.35 221.95334 -4.1 222.54 -4.1C 223.12 -4.1 223.60333 -4.2166667 223.99 -4.45C 224.37 -4.6833334 224.59334 -4.816667 224.66 -4.85C 225.22667 -4.7833333 225.51 -4.1933336 225.51 -3.08C 225.51 -1.96 224.99333 -1.06 223.96 -0.38C 222.92668 0.30666667 221.84335 0.65 220.71 0.65C 219.57668 0.65 218.60333 0.45000002 217.79 0.05C 216.97 -0.35 216.37668 -0.8 216.01 -1.3C 215.64334 -1.8 215.34335 -2.3666668 215.11 -3C 214.87668 -3.766667 214.76001 -4.4333334 214.76 -5C 214.76001 -7.333334 215.49335 -9.200001 216.96 -10.6C 218.42668 -12.000001 220.31001 -13.000001 222.61 -13.6C 225.64334 -14.200001 227.22667 -14.75 227.36 -15.25C 227.46 -15.616667 227.51001 -16.233334 227.51 -17.1C 227.51001 -18.866667 226.61002 -19.75 224.81 -19.75C 224.04333 -19.75 223.36002 -19.51 222.76 -19.03C 222.16 -18.543333 221.86002 -17.933334 221.86 -17.2L221.86 -17.2L222.16 -16C 222.09335 -15.433334 221.49335 -15.1 220.36 -15L220.36 -15L219.81 -14.95C 218.81001 -14.950001 218.02002 -15.200001 217.44 -15.7C 216.85333 -16.2 216.56 -16.866669 216.56 -17.7C 216.56 -18.233334 216.73666 -18.826668 217.09 -19.48C 217.43668 -20.126667 217.87668 -20.650002 218.41 -21.05C 218.94336 -21.45 219.77002 -21.81 220.89 -22.13C 222.00334 -22.443335 223.07668 -22.600002 224.11 -22.6C 225.14334 -22.600002 225.94333 -22.566668 226.51 -22.5C 227.07666 -22.433334 227.85333 -22.276667 228.84 -22.03C 229.82 -21.776667 230.63667 -21.3 231.29 -20.6C 231.93666 -19.9 232.28667 -19.16 232.34 -18.38C 232.38667 -17.593334 232.41 -16.466667 232.41 -15zM235.46 0.35C 236.06 -3.2500002 236.36 -7.566667 236.36 -12.6C 236.36 -17.633333 236.21 -20.9 235.91 -22.4C 235.91002 -22.833334 236.41002 -23.05 237.41 -23.05C 238.94334 -23.05 239.96 -22.466667 240.46 -21.3C 240.49333 -21.2 240.57666 -21.150002 240.71 -21.15C 240.84335 -21.150002 240.94334 -21.183334 241.01 -21.25C 242.04333 -22.316668 243.64334 -22.85 245.81 -22.85C 247.97668 -22.85 249.69334 -22.300001 250.96 -21.2C 252.22667 -20.1 252.86 -18.5 252.86 -16.4C 252.86 -15.133333 252.75333 -13.333334 252.54 -11C 252.32 -8.666667 252.21002 -6.9333334 252.21 -5.8C 252.21002 -3.1000001 252.66002 -1.1500001 253.56 0.05C 253.69334 0.21666668 253.76001 0.38333336 253.76 0.55C 253.76001 0.9833334 253.29333 1.2 252.36 1.2C 248.22668 1.2 246.16 -0.6333333 246.16 -4.3C 246.16 -5.7000003 246.47668 -7.65 247.11 -10.15C 247.74335 -12.65 248.06 -14.55 248.06 -15.85C 248.06 -18.516666 246.96 -19.85 244.76 -19.85C 243.69334 -19.85 242.88667 -19.533333 242.34 -18.9C 241.78667 -18.266666 241.47667 -17.543335 241.41 -16.73C 241.34334 -15.910001 241.31 -14.366668 241.31 -12.1C 241.31 -8.633334 241.42667 -5.616667 241.66 -3.05L241.66 -3.05L241.76 -1.95C 241.76001 -1.0166667 241.15335 -0.29000002 239.94 0.23C 238.72 0.74333334 237.67001 1 236.79 1C 235.90335 1 235.46002 0.78333336 235.46 0.35zM281.86 -9.95L281.76 -14.7C 281.76 -15.466667 281.29333 -15.883334 280.36 -15.95L280.36 -15.95L276.81 -15.95C 276.54333 -15.95 276.41003 -16.033333 276.41 -16.2C 276.61 -17.166668 276.96 -17.943333 277.46 -18.53C 277.96 -19.11 278.37665 -19.433334 278.71 -19.5C 279.6433 -19.633335 281.17667 -19.7 283.31 -19.7C 285.44336 -19.7 286.77667 -19.693335 287.31 -19.68C 287.84332 -19.66 288.17667 -19.6 288.31 -19.5C 288.44336 -19.333334 288.51 -19.143333 288.51 -18.93C 288.51 -18.710001 288.45 -17.326668 288.33 -14.78C 288.21667 -12.226667 288.16 -9.943334 288.16 -7.93C 288.16 -5.9100003 288.22668 -4.6433334 288.36 -4.13C 288.49335 -3.6100001 288.56 -3.2833333 288.56 -3.15C 288.56 -2.6166668 288.09332 -2.0433333 287.16 -1.43C 286.22668 -0.81 284.81668 -0.26666668 282.93 0.2C 281.05 0.6666667 278.97665 0.90000004 276.71 0.9C 273.67667 0.90000004 271.04333 -0.14999998 268.81 -2.25C 267.07666 -3.9166667 265.88333 -5.7333336 265.23 -7.7C 264.58334 -9.666666 264.26 -12.433333 264.26 -16C 264.26 -29.233334 269.11002 -35.85 278.81 -35.85C 280.44336 -35.85 281.91003 -35.676666 283.21 -35.33C 284.51 -34.97667 285.65002 -34.29 286.63 -33.27C 287.61667 -32.256668 288.11 -30.95 288.11 -29.35C 288.11 -28.516666 287.94333 -27.666668 287.61 -26.8C 287.01 -25.033333 285.67667 -24.150002 283.61 -24.15C 282.47668 -24.150002 281.61667 -24.443335 281.03 -25.03C 280.45 -25.61 280.16003 -26.416668 280.16 -27.45C 280.16003 -27.850002 280.37668 -28.100002 280.81 -28.2C 281.44336 -28.56667 281.76 -29.193335 281.76 -30.08C 281.76 -30.960001 281.4267 -31.643335 280.76 -32.13C 280.09335 -32.61 279.39337 -32.85 278.66 -32.85C 277.06 -32.85 275.71002 -32.276665 274.61 -31.13C 273.51 -29.976667 272.71 -28.466667 272.21 -26.6C 271.37665 -23.266666 270.96 -19.866667 270.96 -16.4C 270.96 -10.733334 272.34332 -6.966667 275.11 -5.1C 276.14334 -4.366667 277.22668 -4 278.36 -4C 280.46002 -4 281.57666 -4.383333 281.71 -5.15C 281.81 -6.1833334 281.86 -7.7833333 281.86 -9.95zM307.95 -15L307.85 -8.6C 307.85 -4.166667 308.33334 -1.5000001 309.3 -0.6C 309.43335 -0.4666667 309.5 -0.3166667 309.5 -0.15C 309.5 0.35000002 308.4267 0.6 306.28 0.6C 304.12665 0.6 302.98334 -0.0333333 302.85 -1.3C 302.81668 -1.6000001 302.8 -2.2166667 302.8 -3.15L302.8 -3.15L303 -11.15C 303 -11.383333 302.86667 -11.5 302.6 -11.5C 301 -11.5 299.5 -11.05 298.1 -10.15C 296.7 -9.25 296 -8.1 296 -6.7C 296 -5.9666667 296.2 -5.35 296.6 -4.85C 297 -4.35 297.49335 -4.1 298.08 -4.1C 298.66003 -4.1 299.14337 -4.2166667 299.53 -4.45C 299.91003 -4.6833334 300.13336 -4.816667 300.2 -4.85C 300.76666 -4.7833333 301.05 -4.1933336 301.05 -3.08C 301.05 -1.96 300.53333 -1.06 299.5 -0.38C 298.46667 0.30666667 297.38336 0.65 296.25 0.65C 295.11667 0.65 294.14334 0.45000002 293.33 0.05C 292.51 -0.35 291.9167 -0.8 291.55 -1.3C 291.18335 -1.8 290.88333 -2.3666668 290.65 -3C 290.41666 -3.766667 290.3 -4.4333334 290.3 -5C 290.3 -7.333334 291.03333 -9.200001 292.5 -10.6C 293.96667 -12.000001 295.85 -13.000001 298.15 -13.6C 301.18335 -14.200001 302.7667 -14.75 302.9 -15.25C 303 -15.616667 303.05 -16.233334 303.05 -17.1C 303.05 -18.866667 302.15 -19.75 300.35 -19.75C 299.58334 -19.75 298.90002 -19.51 298.3 -19.03C 297.7 -18.543333 297.4 -17.933334 297.4 -17.2L297.4 -17.2L297.7 -16C 297.63336 -15.433334 297.03333 -15.1 295.9 -15L295.9 -15L295.35 -14.95C 294.35 -14.950001 293.56 -15.200001 292.98 -15.7C 292.39334 -16.2 292.1 -16.866669 292.1 -17.7C 292.1 -18.233334 292.27667 -18.826668 292.63 -19.48C 292.97668 -20.126667 293.4167 -20.650002 293.95 -21.05C 294.48334 -21.45 295.31 -21.81 296.43 -22.13C 297.54333 -22.443335 298.61667 -22.600002 299.65 -22.6C 300.68335 -22.600002 301.48334 -22.566668 302.05 -22.5C 302.61667 -22.433334 303.39334 -22.276667 304.38 -22.03C 305.36002 -21.776667 306.17667 -21.3 306.83 -20.6C 307.47665 -19.9 307.82666 -19.16 307.88 -18.38C 307.9267 -17.593334 307.95 -16.466667 307.95 -15zM326.2 -6.85C 326.2 -5.4166665 325.9267 -4.1666665 325.38 -3.1C 324.82666 -2.0333333 324.2 -1.25 323.5 -0.75C 322.80002 -0.25 321.96667 0.15 321 0.45C 319.73334 0.85 318.58334 1.05 317.55 1.05C 315.38333 1.05 313.5833 0.62333333 312.15 -0.23C 310.71667 -1.0766667 310 -2.4333334 310 -4.3C 310 -5.4 310.3 -6.3 310.9 -7C 311.8333 -8.033334 312.95 -8.55 314.25 -8.55C 314.65002 -8.55 314.85 -8.366667 314.85 -8C 314.85 -7.966667 314.77667 -7.71 314.63 -7.23C 314.47668 -6.743334 314.40002 -6.1333337 314.4 -5.4C 314.40002 -4.666667 314.69336 -4.016667 315.28 -3.45C 315.86 -2.8833334 316.56665 -2.6 317.4 -2.6C 318.23334 -2.6 318.9 -2.7433333 319.4 -3.03C 319.9 -3.3100002 320.25 -3.666667 320.45 -4.1C 320.75 -4.7000003 320.9 -5.266667 320.9 -5.8C 320.9 -6.766667 320.4167 -7.6000004 319.45 -8.3C 318.48334 -9 317.4167 -9.55 316.25 -9.95C 315.08334 -10.35 314.01666 -11.016667 313.05 -11.95C 312.08334 -12.883334 311.6 -14.050001 311.6 -15.45C 311.6 -17.85 312.36002 -19.65 313.88 -20.85C 315.39334 -22.050001 317.45 -22.650002 320.05 -22.65C 321.18335 -22.650002 322.37668 -22.493334 323.63 -22.18C 324.87668 -21.86 325.5 -21.326668 325.5 -20.58C 325.5 -19.826668 325.37668 -19.133335 325.13 -18.5C 324.87668 -17.866667 324.56668 -17.55 324.2 -17.55C 324 -17.55 323.86667 -17.626667 323.8 -17.78C 323.73334 -17.926666 323.6167 -18.1 323.45 -18.3C 323.28336 -18.5 322.88336 -18.756668 322.25 -19.07C 321.61667 -19.39 321.07666 -19.55 320.63 -19.55C 320.1767 -19.55 319.8767 -19.543333 319.73 -19.53C 319.57666 -19.51 319.31668 -19.46 318.95 -19.38C 318.58334 -19.293335 318.25 -19.166668 317.95 -19C 317.18335 -18.566668 316.8 -17.933334 316.8 -17.1C 316.8 -16.566668 316.91666 -16.176666 317.15 -15.93C 317.38333 -15.676667 317.56668 -15.483334 317.7 -15.35C 317.83334 -15.216667 318.06665 -15.06 318.4 -14.88C 318.73334 -14.693334 318.96667 -14.566668 319.1 -14.5C 319.23334 -14.433334 319.53333 -14.293334 320 -14.08C 320.46667 -13.860001 320.7667 -13.716667 320.9 -13.65C 324.43335 -11.983334 326.2 -9.716667 326.2 -6.85zM353.1 -27.7L353.3 -29.25C 353.3 -30.783333 352.7 -31.766666 351.5 -32.2C 350.56668 -32.5 349.85 -32.65 349.35 -32.65L349.35 -32.65L349.3 -32.65C 348.3 -32.65 347.43335 -32.493336 346.7 -32.18C 345.96667 -31.860003 345.43335 -31.46667 345.1 -31C 344.40002 -30.033335 344 -29.016668 343.9 -27.95C 343.9 -26.683334 344.46667 -25.593334 345.6 -24.68C 346.73334 -23.76 348.10666 -22.96 349.72 -22.28C 351.34 -21.593334 352.95667 -20.85 354.57 -20.05C 356.19 -19.25 357.56668 -18.100002 358.7 -16.6C 359.83334 -15.100001 360.4 -13.300001 360.4 -11.2C 360.4 -7.1000004 359.10666 -4.0333333 356.52 -2C 353.94 0.0333333 351.00668 1.05 347.72 1.05C 344.44 1.05 341.72333 0.30666667 339.57 -1.18C 337.42334 -2.6600003 336.35 -4.6500006 336.35 -7.15L336.35 -7.15L336.35 -7.2C 336.35 -8.433334 336.54 -9.51 336.92 -10.43C 337.30667 -11.343334 337.76666 -12.016666 338.3 -12.45C 339.40002 -13.35 340.40002 -13.833334 341.3 -13.9L341.3 -13.9L341.9 -13.95C 342.83334 -13.950001 343.68335 -13.726667 344.45 -13.28C 345.21667 -12.826668 345.6 -12.200001 345.6 -11.4C 345.6 -11 345.38336 -10.666667 344.95 -10.4C 344.51666 -10.133333 344.14 -9.733334 343.82 -9.2C 343.50668 -8.666666 343.33334 -8.216667 343.3 -7.85L343.3 -7.85L343.2 -7.3C 343.2 -5.266667 344.13336 -3.916667 346 -3.25C 346.6667 -3.016667 347.2 -2.9 347.6 -2.9C 349.43335 -2.9 350.90668 -3.4500003 352.02 -4.55C 353.14 -5.65 353.7 -7.05 353.7 -8.75C 353.7 -10.783334 352.83337 -12.433333 351.1 -13.7C 349.8 -14.633334 348.39 -15.416668 346.87 -16.05C 345.3567 -16.683334 344.33334 -17.133335 343.8 -17.4C 343.26666 -17.666668 342.7 -17.983334 342.1 -18.35C 341.5 -18.716667 340.83334 -19.233334 340.1 -19.9C 338.5 -21.3 337.7 -23.193333 337.7 -25.58C 337.7 -27.960001 338.35 -29.966667 339.65 -31.6C 341.98334 -34.566666 345.48334 -36.05 350.15 -36.05C 352.61667 -36.05 354.7 -35.576668 356.4 -34.63C 358.10004 -33.67667 358.95 -32.36667 358.95 -30.7C 358.95 -29.5 358.6067 -28.5 357.92 -27.7C 357.24 -26.900002 356.36667 -26.500002 355.3 -26.5C 354.8 -26.500002 354.30667 -26.600002 353.82 -26.8C 353.34003 -27 353.1 -27.300001 353.1 -27.7zM361.94 -19.5L362.09 -21.5C 362.12335 -21.800001 362.3567 -21.95 362.79 -21.95L362.79 -21.95L364.54 -21.95L364.34 -25.95L364.34 -26.15C 364.34003 -26.916668 364.92334 -27.650002 366.09 -28.35C 367.25665 -29.050001 368.32333 -29.400002 369.29 -29.4C 369.59 -29.400002 369.74 -29.266666 369.74 -29L369.74 -29L369.74 -28.95C 369.6067 -28.050003 369.47336 -25.733335 369.34 -22C 370.80667 -22 371.74002 -22.033333 372.14 -22.1C 372.54 -22.166668 372.75665 -22.2 372.79 -22.2C 373.02335 -22.2 373.14 -22.000002 373.14 -21.6C 373.14 -21.2 372.95667 -20.693333 372.59 -20.08C 372.22333 -19.46 371.82336 -19.133333 371.39 -19.1L371.39 -19.1L369.29 -19.1C 369.25668 -17.966667 369.24 -16.060001 369.24 -13.38C 369.24 -10.693334 369.26666 -8.483334 369.32 -6.75C 369.3667 -5.016667 369.42334 -3.7100003 369.49 -2.83C 369.55667 -1.9433334 369.63336 -1.2333333 369.72 -0.7C 369.8 -0.16666666 369.86667 0.21666667 369.92 0.45C 369.96667 0.6833334 369.99 0.8333334 369.99 0.9C 369.99 1.2333333 369.77335 1.4166667 369.34 1.45C 368.04 1.45 366.75 1.2666667 365.47 0.9C 364.18335 0.53333336 363.54004 -0.10000001 363.54 -1C 364.24 -6.6 364.59 -12.616667 364.59 -19.05C 363.69 -19.05 363.00668 -19.016666 362.54 -18.95L362.54 -18.95L362.49 -18.95C 362.19 -18.95 362.00668 -19.133335 361.94 -19.5zM390.59 -15L390.49 -8.6C 390.49 -4.166667 390.97333 -1.5000001 391.94 -0.6C 392.07336 -0.4666667 392.14005 -0.3166667 392.14 -0.15C 392.14005 0.35000002 391.0667 0.6 388.92 0.6C 386.7667 0.6 385.62335 -0.0333333 385.49 -1.3C 385.4567 -1.6000001 385.44003 -2.2166667 385.44 -3.15L385.44 -3.15L385.64 -11.15C 385.64 -11.383333 385.50668 -11.5 385.24 -11.5C 383.64 -11.5 382.14 -11.05 380.74 -10.15C 379.34003 -9.25 378.64 -8.1 378.64 -6.7C 378.64 -5.9666667 378.84003 -5.35 379.24 -4.85C 379.64 -4.35 380.13333 -4.1 380.72 -4.1C 381.30002 -4.1 381.78336 -4.2166667 382.17 -4.45C 382.55002 -4.6833334 382.77335 -4.816667 382.84 -4.85C 383.40668 -4.7833333 383.69 -4.1933336 383.69 -3.08C 383.69 -1.96 383.17334 -1.06 382.14 -0.38C 381.1067 0.30666667 380.02335 0.65 378.89 0.65C 377.75668 0.65 376.78333 0.45000002 375.97 0.05C 375.15 -0.35 374.55667 -0.8 374.19 -1.3C 373.82336 -1.8 373.52338 -2.3666668 373.29 -3C 373.0567 -3.766667 372.94 -4.4333334 372.94 -5C 372.94 -7.333334 373.67334 -9.200001 375.14 -10.6C 376.6067 -12.000001 378.49 -13.000001 380.79 -13.6C 383.82336 -14.200001 385.40668 -14.75 385.54 -15.25C 385.64 -15.616667 385.69 -16.233334 385.69 -17.1C 385.69 -18.866667 384.79 -19.75 382.99 -19.75C 382.22333 -19.75 381.54 -19.51 380.94 -19.03C 380.34003 -18.543333 380.04004 -17.933334 380.04 -17.2L380.04 -17.2L380.34 -16C 380.27332 -15.433334 379.67334 -15.1 378.54 -15L378.54 -15L377.99 -14.95C 376.99 -14.950001 376.2 -15.200001 375.62 -15.7C 375.03333 -16.2 374.74 -16.866669 374.74 -17.7C 374.74 -18.233334 374.91666 -18.826668 375.27 -19.48C 375.61667 -20.126667 376.05667 -20.650002 376.59 -21.05C 377.12335 -21.45 377.95 -21.81 379.07 -22.13C 380.18335 -22.443335 381.25665 -22.600002 382.29 -22.6C 383.32336 -22.600002 384.12335 -22.566668 384.69 -22.5C 385.25668 -22.433334 386.03333 -22.276667 387.02 -22.03C 388 -21.776667 388.81668 -21.3 389.47 -20.6C 390.11667 -19.9 390.46667 -19.16 390.52 -18.38C 390.56668 -17.593334 390.59003 -16.466667 390.59 -15zM392.89 -19.5L393.04 -21.5C 393.07333 -21.800001 393.30667 -21.95 393.74 -21.95L393.74 -21.95L395.49 -21.95L395.29 -25.95L395.29 -26.15C 395.29 -26.916668 395.87335 -27.650002 397.04 -28.35C 398.2067 -29.050001 399.27335 -29.400002 400.24 -29.4C 400.54 -29.400002 400.69 -29.266666 400.69 -29L400.69 -29L400.69 -28.95C 400.5567 -28.050003 400.42334 -25.733335 400.29 -22C 401.75665 -22 402.69 -22.033333 403.09 -22.1C 403.49002 -22.166668 403.70667 -22.2 403.74 -22.2C 403.97333 -22.2 404.09003 -22.000002 404.09 -21.6C 404.09003 -21.2 403.90668 -20.693333 403.54 -20.08C 403.17334 -19.46 402.77335 -19.133333 402.34 -19.1L402.34 -19.1L400.24 -19.1C 400.20667 -17.966667 400.19 -16.060001 400.19 -13.38C 400.19 -10.693334 400.21335 -8.483334 400.26 -6.75C 400.31335 -5.016667 400.37335 -3.7100003 400.44 -2.83C 400.50668 -1.9433334 400.58002 -1.2333333 400.66 -0.7C 400.7467 -0.16666666 400.81335 0.21666667 400.86 0.45C 400.91333 0.6833334 400.94 0.8333334 400.94 0.9C 400.94 1.2333333 400.72333 1.4166667 400.29 1.45C 398.99 1.45 397.69666 1.2666667 396.41 0.9C 395.13 0.53333336 394.49002 -0.10000001 394.49 -1C 395.19003 -6.6 395.54004 -12.616667 395.54 -19.05C 394.64 -19.05 393.95667 -19.016666 393.49 -18.95L393.49 -18.95L393.44 -18.95C 393.14 -18.95 392.9567 -19.133335 392.89 -19.5zM409.99 -26.75L408.79 -26.8C 407.89 -26.8 407.3067 -26.583334 407.04 -26.15C 406.97333 -26.050001 406.89 -26 406.79 -26C 406.3567 -26 406.14 -26.743334 406.14 -28.23C 406.14 -29.710001 406.36334 -30.650002 406.81 -31.05C 407.26334 -31.45 408.0467 -31.650002 409.16 -31.65C 410.28003 -31.650002 411.04 -31.460001 411.44 -31.08C 411.84003 -30.693335 412.04004 -30.050001 412.04 -29.15C 412.04004 -28.25 411.89 -27.626667 411.59 -27.28C 411.29004 -26.926668 410.75668 -26.75 409.99 -26.75zM405.99 -1.5L406.54 -13.15C 406.54 -15.916666 406.22333 -17.8 405.59 -18.8C 405.39 -19.133333 405.1567 -19.383333 404.89 -19.55C 404.69003 -19.616667 404.59003 -19.75 404.59 -19.95C 404.59003 -20.550001 405.44003 -21.133335 407.14 -21.7C 408.84003 -22.266666 410.08002 -22.55 410.86 -22.55C 411.6467 -22.55 412.0567 -22.35 412.09 -21.95C 412.09003 -21.283335 411.9967 -19.393333 411.81 -16.28C 411.63 -13.160001 411.54004 -9.883333 411.54 -6.45C 411.54004 -3.016667 411.74002 -0.8833333 412.14 -0.05C 412.24002 0.116666675 412.29004 0.28333336 412.29 0.45C 412.29004 0.8833333 411.65668 1.1 410.39 1.1C 409.12335 1.1 407.82333 0.7666667 406.49 0.1C 406.15668 -0.06666668 405.99 -0.6 405.99 -1.5zM420.08 -18.85C 419.21335 -18.816666 418.59003 -18.793333 418.21 -18.78C 417.82336 -18.76 417.63 -18.85 417.63 -19.05C 417.63 -19.25 417.73 -19.45 417.93 -19.65C 420.06335 -21.616669 423.66336 -22.600002 428.73 -22.6C 430.46335 -22.600002 431.83002 -22.45 432.83 -22.15L432.83 -22.15L433.33 -22C 433.73 -21.833334 433.93002 -21.650002 433.93 -21.45C 433.93002 -21.283335 433.81335 -21.150002 433.58 -21.05C 432.68002 -20.783333 431.81335 -20.36 430.98 -19.78C 430.1467 -19.193335 429.73004 -18.783333 429.73 -18.55L429.73 -18.55L430.03 -18.2C 431.09668 -17.6 431.92337 -16.65 432.51 -15.35C 433.09003 -14.05 433.41336 -12.9 433.48 -11.9L433.48 -11.9L433.58 -10.35C 433.58002 -7.05 432.66333 -4.3333335 430.83 -2.2C 428.99664 -0.06666666 426.49664 1 423.33 1C 421.72998 1 420.34668 0.7166667 419.18 0.15C 418.01337 -0.41666666 417.15668 -1.0600001 416.61 -1.78C 416.05667 -2.4933333 415.61334 -3.3 415.28 -4.2C 414.88 -5.433334 414.68 -6.7100005 414.68 -8.03C 414.68 -9.343334 414.90668 -10.666667 415.36 -12C 415.80667 -13.333334 416.32333 -14.316668 416.91 -14.95C 417.49002 -15.583334 418.1467 -16.1 418.88 -16.5C 419.81335 -17 420.56335 -17.25 421.13 -17.25C 421.6967 -17.25 421.98 -17.133333 421.98 -16.9L421.98 -16.9L421.68 -16.4C 420.94666 -15.533335 420.42334 -14.400002 420.11 -13C 419.79004 -11.6 419.63004 -10.36 419.63 -9.28C 419.63004 -8.193334 419.76337 -7.1166673 420.03 -6.05C 420.2967 -4.9833336 420.59668 -4.1933336 420.93 -3.68C 421.26334 -3.16 421.64667 -2.766667 422.08 -2.5C 422.71335 -2.1 423.38 -1.9 424.08 -1.9C 424.78003 -1.9 425.46335 -2.1766667 426.13 -2.73C 426.7967 -3.2766669 427.28003 -4 427.58 -4.9C 428.18002 -6.5666666 428.48004 -8.283334 428.48 -10.05C 428.48004 -12.85 427.77335 -15.016666 426.36 -16.55C 424.94 -18.083334 422.84668 -18.850002 420.08 -18.85zM436.03 0.35C 436.63 -3.2500002 436.93002 -7.566667 436.93 -12.6C 436.93002 -17.633333 436.78003 -20.9 436.48 -22.4C 436.48004 -22.833334 436.98004 -23.05 437.98 -23.05C 439.51337 -23.05 440.53003 -22.466667 441.03 -21.3C 441.06335 -21.2 441.14667 -21.150002 441.28 -21.15C 441.41333 -21.150002 441.51334 -21.183334 441.58 -21.25C 442.61334 -22.316668 444.21335 -22.85 446.38 -22.85C 448.5467 -22.85 450.26337 -22.300001 451.53 -21.2C 452.7967 -20.1 453.43002 -18.5 453.43 -16.4C 453.43002 -15.133333 453.32336 -13.333334 453.11 -11C 452.89 -8.666667 452.78 -6.9333334 452.78 -5.8C 452.78 -3.1000001 453.23 -1.1500001 454.13 0.05C 454.26334 0.21666668 454.33 0.38333336 454.33 0.55C 454.33 0.9833334 453.86334 1.2 452.93 1.2C 448.7967 1.2 446.73 -0.6333333 446.73 -4.3C 446.73 -5.7000003 447.0467 -7.65 447.68 -10.15C 448.31335 -12.65 448.63 -14.55 448.63 -15.85C 448.63 -18.516666 447.53 -19.85 445.33 -19.85C 444.26334 -19.85 443.45667 -19.533333 442.91 -18.9C 442.3567 -18.266666 442.0467 -17.543335 441.98 -16.73C 441.91333 -15.910001 441.88 -14.366668 441.88 -12.1C 441.88 -8.633334 441.99667 -5.616667 442.23 -3.05L442.23 -3.05L442.33 -1.95C 442.33 -1.0166667 441.72333 -0.29000002 440.51 0.23C 439.29 0.74333334 438.24 1 437.36 1C 436.47333 1 436.03003 0.78333336 436.03 0.35zM480.88 -27.7L481.08 -29.25C 481.08002 -30.783333 480.48 -31.766666 479.28 -32.2C 478.34668 -32.5 477.63 -32.65 477.13 -32.65L477.13 -32.65L477.08 -32.65C 476.08002 -32.65 475.21335 -32.493336 474.48 -32.18C 473.74667 -31.860003 473.21335 -31.46667 472.88 -31C 472.18002 -30.033335 471.78003 -29.016668 471.68 -27.95C 471.68 -26.683334 472.24667 -25.593334 473.38 -24.68C 474.51334 -23.76 475.88666 -22.96 477.5 -22.28C 479.12 -21.593334 480.7367 -20.85 482.35 -20.05C 483.97003 -19.25 485.34668 -18.100002 486.48 -16.6C 487.61334 -15.100001 488.18 -13.300001 488.18 -11.2C 488.18 -7.1000004 486.88666 -4.0333333 484.3 -2C 481.72003 0.0333333 478.78668 1.05 475.5 1.05C 472.22 1.05 469.50336 0.30666667 467.35 -1.18C 465.20337 -2.6600003 464.13 -4.6500006 464.13 -7.15L464.13 -7.15L464.13 -7.2C 464.13 -8.433334 464.32 -9.51 464.7 -10.43C 465.08667 -11.343334 465.5467 -12.016666 466.08 -12.45C 467.18 -13.35 468.18 -13.833334 469.08 -13.9L469.08 -13.9L469.68 -13.95C 470.61334 -13.950001 471.46335 -13.726667 472.23 -13.28C 472.99667 -12.826668 473.38 -12.200001 473.38 -11.4C 473.38 -11 473.16333 -10.666667 472.73 -10.4C 472.2967 -10.133333 471.92 -9.733334 471.6 -9.2C 471.28668 -8.666666 471.11334 -8.216667 471.08 -7.85L471.08 -7.85L470.98 -7.3C 470.98004 -5.266667 471.91336 -3.916667 473.78 -3.25C 474.4467 -3.016667 474.98004 -2.9 475.38 -2.9C 477.21338 -2.9 478.6867 -3.4500003 479.8 -4.55C 480.92004 -5.65 481.48004 -7.05 481.48 -8.75C 481.48004 -10.783334 480.61337 -12.433333 478.88 -13.7C 477.58002 -14.633334 476.17 -15.416668 474.65 -16.05C 473.1367 -16.683334 472.11334 -17.133335 471.58 -17.4C 471.04666 -17.666668 470.48 -17.983334 469.88 -18.35C 469.28003 -18.716667 468.61334 -19.233334 467.88 -19.9C 466.28003 -21.3 465.48 -23.193333 465.48 -25.58C 465.48 -27.960001 466.13 -29.966667 467.43 -31.6C 469.76334 -34.566666 473.26334 -36.05 477.93 -36.05C 480.39667 -36.05 482.48 -35.576668 484.18 -34.63C 485.88004 -33.67667 486.73004 -32.36667 486.73 -30.7C 486.73004 -29.5 486.38672 -28.5 485.7 -27.7C 485.02002 -26.900002 484.14667 -26.500002 483.08 -26.5C 482.58002 -26.500002 482.08667 -26.600002 481.6 -26.8C 481.12 -27 480.88 -27.300001 480.88 -27.7zM495.62 -26.75L494.42 -26.8C 493.52002 -26.8 492.9367 -26.583334 492.67 -26.15C 492.60333 -26.050001 492.52002 -26 492.42 -26C 491.9867 -26 491.77002 -26.743334 491.77 -28.23C 491.77002 -29.710001 491.9967 -30.650002 492.45 -31.05C 492.89667 -31.45 493.68 -31.650002 494.8 -31.65C 495.91333 -31.650002 496.67 -31.460001 497.07 -31.08C 497.47003 -30.693335 497.67004 -30.050001 497.67 -29.15C 497.67004 -28.25 497.52002 -27.626667 497.22 -27.28C 496.91998 -26.926668 496.38666 -26.75 495.62 -26.75zM491.62 -1.5L492.17 -13.15C 492.17 -15.916666 491.85333 -17.8 491.22 -18.8C 491.02002 -19.133333 490.78668 -19.383333 490.52 -19.55C 490.32 -19.616667 490.22003 -19.75 490.22 -19.95C 490.22003 -20.550001 491.07 -21.133335 492.77 -21.7C 494.47003 -22.266666 495.71335 -22.55 496.5 -22.55C 497.28003 -22.55 497.6867 -22.35 497.72 -21.95C 497.72003 -21.283335 497.63004 -19.393333 497.45 -16.28C 497.26337 -13.160001 497.17004 -9.883333 497.17 -6.45C 497.17004 -3.016667 497.37003 -0.8833333 497.77 -0.05C 497.87003 0.116666675 497.92004 0.28333336 497.92 0.45C 497.92004 0.8833333 497.28668 1.1 496.02 1.1C 494.75333 1.1 493.45334 0.7666667 492.12 0.1C 491.78668 -0.06666668 491.62 -0.6 491.62 -1.5zM512.27 0.3C 512.7367 -2.0333335 512.97 -5.3100004 512.97 -9.53C 512.97 -13.743334 512.9533 -16.233334 512.92 -17C 512.88666 -17.766666 512.6533 -18.383335 512.22 -18.85C 511.78668 -19.316666 511.41336 -19.583332 511.1 -19.65C 510.78 -19.716667 510.33667 -19.75 509.77 -19.75C 509.20337 -19.75 508.65338 -19.493334 508.12 -18.98C 507.58667 -18.460001 507.27002 -17.933334 507.17 -17.4L507.17 -17.4L506.97 -16.6C 506.87 -15.600001 506.82 -13.383334 506.82 -9.95C 506.82 -6.516667 506.89667 -4.3600006 507.05 -3.48C 507.19666 -2.5933335 507.27 -2 507.27 -1.7C 507.27 -1.4000001 507.13666 -1.1 506.87 -0.8C 505.7367 0.4 504.13672 1 502.07 1C 501.33667 1 500.97003 0.78333336 500.97 0.35C 501.63666 -3.6500003 501.97 -8.75 501.97 -14.95C 501.97 -17.25 501.92 -18.8 501.82 -19.6L501.82 -19.6L501.62 -21.2C 501.58667 -21.566668 501.52002 -21.966667 501.42 -22.4C 501.42004 -22.800001 501.9367 -23 502.97 -23C 504.50336 -23 505.52002 -22.433334 506.02 -21.3C 506.05334 -21.166668 506.12 -21.100002 506.22 -21.1C 506.32 -21.100002 506.55334 -21.233334 506.92 -21.5C 508.02002 -22.366667 509.50336 -22.8 511.37 -22.8C 512.43665 -22.8 513.4867 -22.6 514.52 -22.2C 515.55334 -21.800001 516.27 -21.266666 516.67 -20.6C 516.7033 -20.533333 516.7533 -20.5 516.82 -20.5C 516.8867 -20.5 516.9867 -20.566668 517.12 -20.7C 518.52 -22.1 520.3367 -22.8 522.57 -22.8C 525.5367 -22.8 527.57 -21.733334 528.67 -19.6C 529.07 -18.766666 529.27 -17.716667 529.27 -16.45C 529.27 -15.183334 529.17004 -13.383334 528.97 -11.05C 528.77 -8.716667 528.67 -6.933334 528.67 -5.7C 528.67 -4.4666667 528.79663 -3.35 529.05 -2.35C 529.29663 -1.35 529.54663 -0.6333334 529.8 -0.2C 530.04663 0.23333335 530.17 0.48333335 530.17 0.55C 530.17 0.9833334 529.70337 1.2 528.77 1.2C 526.47003 1.2 524.87 0.7333334 523.97 -0.2C 523.07 -1.1333334 522.62 -2.3600001 522.62 -3.88C 522.62 -5.393334 522.93 -7.4433336 523.55 -10.03C 524.1633 -12.61 524.47 -14.55 524.47 -15.85C 524.47 -18.483334 523.4033 -19.8 521.27 -19.8C 520.37 -19.8 519.6533 -19.533333 519.12 -19C 518.5867 -18.466667 518.27 -17.933334 518.17 -17.4L518.17 -17.4L518.07 -16.6C 517.93665 -15.066668 517.87 -13.216667 517.87 -11.05C 517.87 -8.883333 517.9033 -7.1933336 517.97 -5.98C 518.0367 -4.76 518.10333 -3.8100004 518.17 -3.13C 518.2367 -2.4433334 518.27 -2.0333333 518.27 -1.9C 518.27 -0.9666667 517.6867 -0.25 516.52 0.25C 515.3534 0.75 514.22003 1 513.12 1C 512.55334 1 512.27 0.7666667 512.27 0.3zM549.52 -22.25C 548.92004 -18.650002 548.62 -14.066668 548.62 -8.5C 548.62 -4.4 548.7867 -1.6999999 549.12 -0.4L549.12 -0.4L549.32 0.25C 549.32 0.68333334 548.95337 0.90000004 548.22 0.9C 545.6533 0.90000004 544.18665 0.18333334 543.82 -1.25C 543.78674 -1.4166667 543.7101 -1.5 543.59 -1.5C 543.4767 -1.5 543.37 -1.4333334 543.27 -1.3C 542.2367 0.06666666 540.63666 0.75 538.47 0.75C 537.27 0.75 536.02 0.45 534.72 -0.15C 533.92004 -0.51666665 533.27 -1.16 532.77 -2.08C 532.27 -2.9933336 532.02 -4.116667 532.02 -5.45L532.02 -5.45L532.77 -16.4C 532.77 -18.7 532.5367 -20.333334 532.07 -21.3C 531.9034 -21.666668 531.82007 -21.900002 531.82 -22C 531.82007 -22.2 531.9034 -22.333334 532.07 -22.4C 532.60333 -22.566668 533.2867 -22.650002 534.12 -22.65C 537.35333 -22.650002 538.97 -21.316668 538.97 -18.65C 538.97 -17.816668 538.62665 -15.916667 537.94 -12.95C 537.26 -9.983334 536.92 -7.876667 536.92 -6.63C 536.92 -5.376667 537.19336 -4.416667 537.74 -3.75C 538.29333 -3.0833335 539.06006 -2.75 540.04 -2.75C 541.02673 -2.75 541.80334 -3.1 542.37 -3.8C 542.93665 -4.5 543.27 -5.2 543.37 -5.9L543.37 -5.9L543.52 -6.95C 543.6533 -8.116667 543.72 -10.166667 543.72 -13.1C 543.72 -16.033333 543.62665 -17.893333 543.44 -18.68C 543.26 -19.460001 543.17004 -19.95 543.17 -20.15C 543.17004 -20.983334 543.8367 -21.643333 545.17 -22.13C 546.5033 -22.61 547.70337 -22.85 548.77 -22.85C 549.27 -22.85 549.52 -22.650002 549.52 -22.25zM558.66 -28.6L558.37 -10.25C 558.37 -4.516667 558.55 -1.0833334 558.91 0.05C 559.01 0.25 559.06 0.45 559.06 0.65C 559.06 1.0500001 558.58 1.25 557.62 1.25C 556.64667 1.25 555.57 1.01 554.39 0.53C 553.21 0.04333332 552.62 -0.5833334 552.62 -1.35C 553.2867 -6.016667 553.62 -12.25 553.62 -20.05L553.62 -20.05L553.41 -27.7C 553.3434 -28.633335 553.1534 -29.433334 552.84 -30.1C 552.5267 -30.766666 552.2167 -31.2 551.91 -31.4L551.91 -31.4L551.51 -31.65C 551.2767 -31.783333 551.16003 -31.933334 551.16 -32.1C 551.16003 -32.566666 551.8867 -33.143333 553.34 -33.83C 554.78674 -34.510002 556.19336 -34.85 557.56 -34.85C 558.1 -34.85 558.4 -34.666668 558.46 -34.3C 558.5934 -33.433334 558.66003 -31.533333 558.66 -28.6zM578.76 -15L578.66 -8.6C 578.66 -4.166667 579.1433 -1.5000001 580.11 -0.6C 580.24335 -0.4666667 580.31006 -0.3166667 580.31 -0.15C 580.31006 0.35000002 579.2367 0.6 577.09 0.6C 574.93665 0.6 573.79333 -0.0333333 573.66 -1.3C 573.6267 -1.6000001 573.61 -2.2166667 573.61 -3.15L573.61 -3.15L573.81 -11.15C 573.81 -11.383333 573.67664 -11.5 573.41 -11.5C 571.81 -11.5 570.31 -11.05 568.91 -10.15C 567.51 -9.25 566.81006 -8.1 566.81 -6.7C 566.81006 -5.9666667 567.01 -5.35 567.41 -4.85C 567.81 -4.35 568.30334 -4.1 568.89 -4.1C 569.47003 -4.1 569.95337 -4.2166667 570.34 -4.45C 570.72 -4.6833334 570.94336 -4.816667 571.01 -4.85C 571.57666 -4.7833333 571.86 -4.1933336 571.86 -3.08C 571.86 -1.96 571.3433 -1.06 570.31 -0.38C 569.2767 0.30666667 568.19336 0.65 567.06 0.65C 565.9267 0.65 564.95337 0.45000002 564.14 0.05C 563.32 -0.35 562.7267 -0.8 562.36 -1.3C 561.99335 -1.8 561.69336 -2.3666668 561.46 -3C 561.2267 -3.766667 561.11 -4.4333334 561.11 -5C 561.11 -7.333334 561.8433 -9.200001 563.31 -10.6C 564.7767 -12.000001 566.66003 -13.000001 568.96 -13.6C 571.9934 -14.200001 573.5767 -14.75 573.71 -15.25C 573.81 -15.616667 573.86 -16.233334 573.86 -17.1C 573.86 -18.866667 572.95996 -19.75 571.16 -19.75C 570.3933 -19.75 569.71 -19.51 569.11 -19.03C 568.51 -18.543333 568.2101 -17.933334 568.21 -17.2L568.21 -17.2L568.51 -16C 568.44336 -15.433334 567.8434 -15.1 566.71 -15L566.71 -15L566.16 -14.95C 565.16003 -14.950001 564.37 -15.200001 563.79 -15.7C 563.2033 -16.2 562.91 -16.866669 562.91 -17.7C 562.91 -18.233334 563.0867 -18.826668 563.44 -19.48C 563.7867 -20.126667 564.2267 -20.650002 564.76 -21.05C 565.29333 -21.45 566.12 -21.81 567.24 -22.13C 568.35333 -22.443335 569.42664 -22.600002 570.46 -22.6C 571.4934 -22.600002 572.29333 -22.566668 572.86 -22.5C 573.4267 -22.433334 574.20337 -22.276667 575.19 -22.03C 576.17004 -21.776667 576.9867 -21.3 577.64 -20.6C 578.2867 -19.9 578.63666 -19.16 578.69 -18.38C 578.7367 -17.593334 578.76 -16.466667 578.76 -15zM581.06 -19.5L581.21 -21.5C 581.24335 -21.800001 581.4767 -21.95 581.91 -21.95L581.91 -21.95L583.66 -21.95L583.46 -25.95L583.46 -26.15C 583.46 -26.916668 584.04333 -27.650002 585.21 -28.35C 586.3767 -29.050001 587.44336 -29.400002 588.41 -29.4C 588.70996 -29.400002 588.86 -29.266666 588.86 -29L588.86 -29L588.86 -28.95C 588.7267 -28.050003 588.5934 -25.733335 588.46 -22C 589.92664 -22 590.86 -22.033333 591.26 -22.1C 591.66003 -22.166668 591.87665 -22.2 591.91 -22.2C 592.1434 -22.2 592.26 -22.000002 592.26 -21.6C 592.26 -21.2 592.0767 -20.693333 591.71 -20.08C 591.3433 -19.46 590.94336 -19.133333 590.51 -19.1L590.51 -19.1L588.41 -19.1C 588.37665 -17.966667 588.36 -16.060001 588.36 -13.38C 588.36 -10.693334 588.3833 -8.483334 588.43 -6.75C 588.4834 -5.016667 588.54333 -3.7100003 588.61 -2.83C 588.6767 -1.9433334 588.75 -1.2333333 588.83 -0.7C 588.9167 -0.16666666 588.9834 0.21666667 589.03 0.45C 589.0834 0.6833334 589.11 0.8333334 589.11 0.9C 589.11 1.2333333 588.8933 1.4166667 588.46 1.45C 587.16003 1.45 585.8667 1.2666667 584.58 0.9C 583.30005 0.53333336 582.66003 -0.10000001 582.66 -1C 583.36 -6.6 583.71 -12.616667 583.71 -19.05C 582.81 -19.05 582.12665 -19.016666 581.66 -18.95L581.66 -18.95L581.61 -18.95C 581.31 -18.95 581.1267 -19.133335 581.06 -19.5zM598.16 -26.75L596.96 -26.8C 596.06 -26.8 595.4767 -26.583334 595.21 -26.15C 595.1433 -26.050001 595.06 -26 594.96 -26C 594.5267 -26 594.31 -26.743334 594.31 -28.23C 594.31 -29.710001 594.5333 -30.650002 594.98 -31.05C 595.43335 -31.45 596.2167 -31.650002 597.33 -31.65C 598.4501 -31.650002 599.21 -31.460001 599.61 -31.08C 600.01 -30.693335 600.21 -30.050001 600.21 -29.15C 600.21 -28.25 600.06006 -27.626667 599.76 -27.28C 599.46 -26.926668 598.92664 -26.75 598.16 -26.75zM594.16 -1.5L594.71 -13.15C 594.71 -15.916666 594.3934 -17.8 593.76 -18.8C 593.56006 -19.133333 593.32666 -19.383333 593.06 -19.55C 592.86 -19.616667 592.76 -19.75 592.76 -19.95C 592.76 -20.550001 593.61 -21.133335 595.31 -21.7C 597.01 -22.266666 598.25 -22.55 599.03 -22.55C 599.8167 -22.55 600.2267 -22.35 600.26 -21.95C 600.26 -21.283335 600.1667 -19.393333 599.98 -16.28C 599.80005 -13.160001 599.7101 -9.883333 599.71 -6.45C 599.7101 -3.016667 599.91003 -0.8833333 600.31 -0.05C 600.41003 0.116666675 600.4601 0.28333336 600.46 0.45C 600.4601 0.8833333 599.8267 1.1 598.56 1.1C 597.29333 1.1 595.9933 0.7666667 594.66 0.1C 594.32666 -0.06666668 594.16 -0.6 594.16 -1.5zM608.25 -18.85C 607.38336 -18.816666 606.76 -18.793333 606.38 -18.78C 605.99335 -18.76 605.8 -18.85 605.8 -19.05C 605.8 -19.25 605.9 -19.45 606.1 -19.65C 608.23334 -21.616669 611.8334 -22.600002 616.9 -22.6C 618.63336 -22.600002 620 -22.45 621 -22.15L621 -22.15L621.5 -22C 621.9 -21.833334 622.1 -21.650002 622.1 -21.45C 622.1 -21.283335 621.98334 -21.150002 621.75 -21.05C 620.85004 -20.783333 619.9834 -20.36 619.15 -19.78C 618.3167 -19.193335 617.9 -18.783333 617.9 -18.55L617.9 -18.55L618.2 -18.2C 619.2667 -17.6 620.0934 -16.65 620.68 -15.35C 621.26 -14.05 621.5834 -12.9 621.65 -11.9L621.65 -11.9L621.75 -10.35C 621.75 -7.05 620.8334 -4.3333335 619 -2.2C 617.1667 -0.06666666 614.6667 1 611.5 1C 609.9 1 608.51666 0.7166667 607.35 0.15C 606.18335 -0.41666666 605.32666 -1.0600001 604.78 -1.78C 604.2267 -2.4933333 603.7834 -3.3 603.45 -4.2C 603.05 -5.433334 602.85 -6.7100005 602.85 -8.03C 602.85 -9.343334 603.07666 -10.666667 603.53 -12C 603.9767 -13.333334 604.49335 -14.316668 605.08 -14.95C 605.66003 -15.583334 606.31665 -16.1 607.05 -16.5C 607.9834 -17 608.7334 -17.25 609.3 -17.25C 609.8667 -17.25 610.15 -17.133333 610.15 -16.9L610.15 -16.9L609.85 -16.4C 609.1167 -15.533335 608.5934 -14.400002 608.28 -13C 607.96 -11.6 607.80005 -10.36 607.8 -9.28C 607.80005 -8.193334 607.93335 -7.1166673 608.2 -6.05C 608.4667 -4.9833336 608.76666 -4.1933336 609.1 -3.68C 609.43335 -3.16 609.81665 -2.766667 610.25 -2.5C 610.88336 -2.1 611.55005 -1.9 612.25 -1.9C 612.95 -1.9 613.6333 -2.1766667 614.3 -2.73C 614.9667 -3.2766669 615.45 -4 615.75 -4.9C 616.35004 -6.5666666 616.65 -8.283334 616.65 -10.05C 616.65 -12.85 615.94336 -15.016666 614.53 -16.55C 613.11005 -18.083334 611.0167 -18.850002 608.25 -18.85zM624.2 0.35C 624.80005 -3.2500002 625.1 -7.566667 625.1 -12.6C 625.1 -17.633333 624.95 -20.9 624.65 -22.4C 624.65 -22.833334 625.15 -23.05 626.15 -23.05C 627.68335 -23.05 628.7 -22.466667 629.2 -21.3C 629.23334 -21.2 629.31665 -21.150002 629.45 -21.15C 629.5834 -21.150002 629.68335 -21.183334 629.75 -21.25C 630.7833 -22.316668 632.3833 -22.85 634.55 -22.85C 636.7167 -22.85 638.43335 -22.300001 639.7 -21.2C 640.9667 -20.1 641.6 -18.5 641.6 -16.4C 641.6 -15.133333 641.49335 -13.333334 641.28 -11C 641.06006 -8.666667 640.95 -6.9333334 640.95 -5.8C 640.95 -3.1000001 641.4 -1.1500001 642.3 0.05C 642.43335 0.21666668 642.5 0.38333336 642.5 0.55C 642.5 0.9833334 642.0333 1.2 641.1 1.2C 636.9667 1.2 634.9 -0.6333333 634.9 -4.3C 634.9 -5.7000003 635.2167 -7.65 635.85 -10.15C 636.48334 -12.65 636.8 -14.55 636.8 -15.85C 636.8 -18.516666 635.7 -19.85 633.5 -19.85C 632.43335 -19.85 631.6267 -19.533333 631.08 -18.9C 630.52673 -18.266666 630.2167 -17.543335 630.15 -16.73C 630.0834 -15.910001 630.05 -14.366668 630.05 -12.1C 630.05 -8.633334 630.1667 -5.616667 630.4 -3.05L630.4 -3.05L630.5 -1.95C 630.5 -1.0166667 629.8933 -0.29000002 628.68 0.23C 627.45996 0.74333334 626.41003 1 625.53 1C 624.6434 1 624.2001 0.78333336 624.2 0.35z" stroke="none" fill="#E8772E" fill-rule="nonzero" />
																		</g>
																	</g>
																</g>
															</g>
														</g>
													</g>
												</g>
											</g>
											<g transform="matrix(1 0 0 1 44.26418 0)">
												<g transform="matrix(1 0 0 1 0 0)">
													<g>
														<g transform="matrix(1.5487385 0 0 1.5487385 -13.938646 -7.7436924)">
                                                            <path d="M89.595 21.494L88.515 19.606L86.987 18.077L85.124 16.996L81.96 16.385L81.875 12.193L81.32 10.109L80.238 8.221L77.818 6.111L75.819 5.277L73.679 5L27.125 5L10.1 68.701L9.764 73.393L10.292 76.506L11.347 79.475L12.957 82.199L16.237 85.586L20.346 87.946L26.485 89.198L32.682 88.113L36.821 85.836L40.182 82.529L42.514 78.422L43.373 75.394L43.68 72.255L43.707 38.156L48.929 38.156L48.929 95L90.236 95L90.236 24.66L89.595 21.494zM57.042 16.44L53.847 17.081L51.987 18.162L50.487 19.691L49.405 21.549L48.766 24.741L41.682 24.741L35.404 30.935L35.322 73.364L34.237 76.559L32.015 79.114L28.958 80.613L25.598 80.835L22.376 79.751L20.569 78.393L18.68 75.56L18.1 73.394L18.071 71.119L18.656 68.926L33.515 13.33L57.042 13.33zM80.817 39.182L58.068 39.182L58.068 24.742L80.817 24.742z" stroke="none" fill="#E8772E" fill-rule="nonzero" />
														</g>
													</g>
												</g>
											</g>
											<g>
											</g>
										</g>
									</g>
								</g>
							</g>
						</g>
					</g>
				</g>
			</g>
		</g>
	</g>
</g>
</svg>