<?xml version="1.0" encoding="utf-8"?>
<!-- Generator: Adobe Illustrator 14.0.0, SVG Export Plug-In . SVG Version: 6.00 Build 43363)  -->
<!DOCTYPE svg PUBLIC "-//W3C//DTD SVG 1.1//EN" "http://www.w3.org/Graphics/SVG/1.1/DTD/svg11.dtd">
<svg version="1.1" id="Ebene_1" xmlns="http://www.w3.org/2000/svg" xmlns:xlink="http://www.w3.org/1999/xlink" x="0px" y="0px"
	 width="1024px" height="620px" viewBox="0 0 1024 620" enable-background="new 0 0 1024 620" xml:space="preserve">
<ellipse fill="#FFFFFF" cx="512.005" cy="311.732" rx="506.47" ry="302.585"/>
<path d="M511.992,1.982c-281.665,0-510,138.011-510,308.257s228.335,308.258,510,308.258s510-138.012,510-308.258
	S793.657,1.982,511.992,1.982z M511.985,612.69c-277.738,0-502.883-135.117-502.883-301.792
	c0-166.675,225.146-301.792,502.883-301.792c277.738,0,502.883,135.117,502.883,301.792
	C1014.868,477.573,789.724,612.69,511.985,612.69z"/>
<path fill="#106AA9" d="M511.548,591.298c214.27,0,395.657-82.344,456.761-195.888H54.788
	C115.892,508.954,297.279,591.298,511.548,591.298z"/>
<path fill="#106AA9" d="M511.548,31.11c-211.841,0-391.542,80.489-454.637,192.042h909.275
	C903.09,111.599,723.391,31.11,511.548,31.11z"/>
<polygon fill="#EF2842" points="53.654,247.102 46.942,280.438 71.122,280.438 92.394,280.438 73.617,373.715 125.008,373.715 
	143.785,280.438 192.456,280.438 199.167,247.102 "/>
<path fill="#EF2842" d="M318.108,247.102h-53.742l-84.837,126.613h51.33l9.762-16.724h51.905l2.318,16.724h52.06L318.108,247.102z
	 M256,330.646l26.564-45.505l6.309,45.505H256z"/>
<polyline fill="#EF2842" points="361.679,373.715 389.521,247.102 452.587,247.102 462.675,326.441 508.582,247.102 
	570.878,247.102 543.137,373.715 497.198,373.715 497.396,371.822 497.55,370.534 497.76,368.946 497.94,367.671 498.133,366.394 
	498.333,365.123 498.563,363.718 498.796,362.366 498.987,361.276 499.239,359.89 499.418,358.933 499.633,357.809 499.866,356.614 
	500.097,355.449 500.298,354.458 500.552,353.223 500.781,352.125 501.002,351.087 501.188,350.221 501.414,349.186 501.641,348.17 
	501.832,347.306 502.031,346.427 502.197,345.695 502.392,344.852 502.604,343.938 502.817,343.022 502.982,342.32 503.154,341.602 
	503.371,340.696 503.613,339.694 503.843,338.755 504.052,337.906 504.229,337.188 504.396,336.523 504.62,335.63 504.812,334.87 
	504.991,334.163 505.194,333.368 505.377,332.662 505.549,332 505.757,331.2 505.928,330.544 506.105,329.872 506.27,329.255 
	506.438,328.619 506.615,327.959 506.802,327.263 506.997,326.537 507.194,325.809 507.35,325.247 507.54,324.551 507.832,323.495 
	508.033,322.768 508.257,321.966 508.491,321.13 508.789,320.075 509.004,319.321 509.269,318.396 509.478,317.672 509.781,316.625 
	510.025,315.786 510.28,314.918 510.602,313.83 510.839,313.033 511.084,312.215 511.375,311.246 511.679,310.239 511.933,309.409 
	512.208,308.513 512.453,307.718 512.664,307.037 512.941,306.15 513.166,305.435 513.381,304.754 513.633,303.959 513.851,303.281 
	514.079,302.568 514.32,301.821 514.537,301.153 514.792,300.373 515.024,299.661 515.281,298.881 515.56,298.046 515.854,297.167 
	516.107,296.411 516.313,295.804 517.069,293.602 508.113,309.087 470.734,373.715 434.616,373.715 423.777,288.818 
	423.692,289.802 423.592,290.904 423.481,292.083 423.381,293.125 423.274,294.197 423.182,295.09 423.103,295.85 423.005,296.773 
	422.941,297.361 422.878,297.94 422.829,298.381 422.76,298.994 422.7,299.522 422.636,300.082 422.596,300.428 422.538,300.921 
	422.489,301.343 422.434,301.802 422.383,302.228 422.334,302.633 422.268,303.177 422.195,303.769 422.151,304.128 
	422.094,304.582 422.048,304.952 422.001,305.318 421.957,305.667 421.903,306.088 421.847,306.521 421.801,306.874 
	421.752,307.251 421.7,307.645 421.652,308.017 421.594,308.446 421.561,308.693 421.514,309.05 421.452,309.505 421.41,309.819 
	421.392,309.951 421.333,310.383 421.297,310.638 421.244,311.023 421.193,311.389 421.153,311.682 421.104,312.026 
	421.048,312.426 421.02,312.624 420.968,312.986 420.925,313.295 420.893,313.516 420.842,313.869 420.792,314.217 420.756,314.469 
	420.713,314.764 420.664,315.096 420.627,315.35 420.594,315.574 420.553,315.855 420.513,316.121 420.474,316.387 420.442,316.603 
	420.377,317.031 420.324,317.389 420.247,317.896 420.176,318.367 420.114,318.772 420.051,319.181 419.971,319.696 
	419.907,320.108 419.848,320.488 419.785,320.893 419.722,321.294 419.635,321.843 419.571,322.243 419.486,322.775 419.41,323.247 
	419.319,323.807 419.216,324.438 419.164,324.758 419.079,325.271 418.994,325.786 418.921,326.229 418.853,326.63 418.783,327.048 
	418.714,327.456 418.643,327.873 418.459,328.946 418.332,329.687 418.187,330.518 418.003,331.559 417.857,332.38 417.672,333.412 
	417.504,334.336 417.308,335.403 417.167,336.166 417.026,336.919 416.881,337.688 416.723,338.516 416.525,339.547 
	416.358,340.405 416.22,341.109 416.085,341.793 415.953,342.456 415.834,343.052 415.667,343.877 415.544,344.483 415.364,345.361 
	415.218,346.063 415.087,346.692 414.94,347.386 414.801,348.045 414.662,348.696 414.48,349.539 414.343,350.167 414.173,350.944 
	414.013,351.667 413.824,352.508 413.652,353.271 413.476,354.041 413.329,354.681 413.139,355.495 412.967,356.228 
	412.806,356.907 412.672,357.465 412.499,358.183 412.176,359.497 411.902,360.595 411.646,361.604 411.317,362.875 
	411.052,363.882 410.826,364.724 410.547,365.749 410.392,366.308 410.13,367.242 409.859,368.186 409.648,368.91 409.354,369.897 
	409.141,370.602 408.737,371.897 408.144,373.715 "/>
<path fill="#EF2842" d="M654.314,349.177c17.001,0.024,33.494-13.199,36.812-29.546l3.609-17.751
	c3.316-16.347-7.798-29.618-24.823-29.642c-17.025-0.047-33.518,13.175-36.835,29.521l-3.585,17.753
	C626.176,335.855,637.267,349.152,654.314,349.177 M651.337,376.785c-15.862-0.558-44.367-2.785-59.284-22.378
	c-14.92-19.593-7.459-47.417-7.459-47.417c3.729-19.979,8.258-34.365,31.168-51.414c20.512-15.257,62.553-11.745,62.553-11.745
	c14.313,0.484,41.268,2.857,55.967,22.135c14.918,19.566,7.436,47.417,7.436,47.417c-3.706,19.979-8.258,34.39-31.144,51.414
	C688.486,381.242,651.337,376.785,651.337,376.785z"/>
<polyline fill="#EF2842" points="755.674,373.715 783.142,247.102 835.363,247.102 807.895,373.715 "/>
<polygon fill="#EF2842" points="970.917,344.249 900.346,344.249 921.401,247.193 869.182,247.193 841.714,373.807 893.934,373.807 
	893.956,373.706 964.506,373.807 "/>
</svg>
